<?xml version="1.0" encoding="UTF-8" standalone="no"?>
<!-- Created with Inkscape (http://www.inkscape.org/) -->

<svg
   xmlns:dc="http://purl.org/dc/elements/1.1/"
   xmlns:cc="http://creativecommons.org/ns#"
   xmlns:rdf="http://www.w3.org/1999/02/22-rdf-syntax-ns#"
   xmlns:svg="http://www.w3.org/2000/svg"
   xmlns="http://www.w3.org/2000/svg"
   xmlns:sodipodi="http://sodipodi.sourceforge.net/DTD/sodipodi-0.dtd"
   xmlns:inkscape="http://www.inkscape.org/namespaces/inkscape"
   id="svg2"
   version="1.1"
   inkscape:version="0.91 r13725"
   xml:space="preserve"
   width="320.77359"
   height="244.34793"
   viewBox="0 0 320.77359 244.34793"
   sodipodi:docname="gg_model.svg"><sodipodi:namedview
     pagecolor="#ffffff"
     bordercolor="#666666"
     borderopacity="1"
     objecttolerance="10"
     gridtolerance="10"
     guidetolerance="10"
     inkscape:pageopacity="0"
     inkscape:pageshadow="2"
     inkscape:window-width="1920"
     inkscape:window-height="1056"
     id="namedview4"
     showgrid="false"
     inkscape:zoom="2.6176816"
     inkscape:cx="175.57972"
     inkscape:cy="106.68378"
     inkscape:window-x="0"
     inkscape:window-y="24"
     inkscape:window-maximized="1"
     inkscape:current-layer="g10"
     fit-margin-top="0"
     fit-margin-left="0"
     fit-margin-right="0"
     fit-margin-bottom="0" /><metadata
     id="metadata8"><rdf:RDF><cc:Work
         rdf:about=""><dc:format>image/svg+xml</dc:format><dc:type
           rdf:resource="http://purl.org/dc/dcmitype/StillImage" /><dc:title></dc:title></cc:Work></rdf:RDF></metadata><defs
     id="defs6"><clipPath
       id="clipPath18"
       clipPathUnits="userSpaceOnUse"><path
         inkscape:connector-curvature="0"
         id="path20"
         d="M 0,0 288,0 288,230 0,230 0,0 Z" /></clipPath><clipPath
       id="clipPath32"
       clipPathUnits="userSpaceOnUse"><path
         inkscape:connector-curvature="0"
         id="path34"
         d="m 2.27,1.81 283.46,0 0,226.77 -283.46,0 0,-226.77 z" /></clipPath><clipPath
       id="clipPath46"
       clipPathUnits="userSpaceOnUse"><path
         inkscape:connector-curvature="0"
         id="path48"
         d="m 40.22,32.43 231.11,0 0,181.76 -231.11,0 0,-181.76 z" /></clipPath></defs><g
     transform="matrix(1.25,0,0,-1.25,-3.3889052,256.92383)"
     inkscape:label="plot-selective"
     inkscape:groupmode="layer"
     id="g10"><g
       transform="translate(-12,-12)"
       id="g12"><g
         id="g14"><g
           clip-path="url(#clipPath18)"
           id="g16"><g
             id="g22" /><g
             id="g24" /><g
             id="g26" /><g
             id="g28"><g
               clip-path="url(#clipPath32)"
               id="g30" /></g><g
             id="g36" /><g
             id="g38" /><g
             id="g40" /><g
             id="g42"><g
               clip-path="url(#clipPath46)"
               id="g44"><path
                 inkscape:connector-curvature="0"
                 id="path50"
                 style="fill:none;stroke:#e5e5e5;stroke-width:0.43000001;stroke-linecap:butt;stroke-linejoin:round;stroke-miterlimit:10;stroke-dasharray:none;stroke-opacity:1"
                 d="m 40.22,40.67 231.11,0" /><path
                 inkscape:connector-curvature="0"
                 id="path52"
                 style="fill:none;stroke:#e5e5e5;stroke-width:0.43000001;stroke-linecap:butt;stroke-linejoin:round;stroke-miterlimit:10;stroke-dasharray:none;stroke-opacity:1"
                 d="m 40.22,83.78 231.11,0" /><path
                 inkscape:connector-curvature="0"
                 id="path54"
                 style="fill:none;stroke:#e5e5e5;stroke-width:0.43000001;stroke-linecap:butt;stroke-linejoin:round;stroke-miterlimit:10;stroke-dasharray:none;stroke-opacity:1"
                 d="m 40.22,126.9 231.11,0" /><path
                 inkscape:connector-curvature="0"
                 id="path56"
                 style="fill:none;stroke:#e5e5e5;stroke-width:0.43000001;stroke-linecap:butt;stroke-linejoin:round;stroke-miterlimit:10;stroke-dasharray:none;stroke-opacity:1"
                 d="m 40.22,170.01 231.11,0" /><path
                 inkscape:connector-curvature="0"
                 id="path58"
                 style="fill:none;stroke:#e5e5e5;stroke-width:0.43000001;stroke-linecap:butt;stroke-linejoin:round;stroke-miterlimit:10;stroke-dasharray:none;stroke-opacity:1"
                 d="m 40.22,213.12 231.11,0" /><path
                 inkscape:connector-curvature="0"
                 id="path62"
                 style="fill:none;stroke:#bebebe;stroke-width:1.05999994;stroke-linecap:butt;stroke-linejoin:round;stroke-miterlimit:1;stroke-dasharray:none;stroke-opacity:1"
                 d="m 50.73,180.31 2.1,-11.82 2.1,-10.81 2.1,-9.9 2.1,-9.06 2.1,-8.3 2.1,-7.59 2.1,-6.95 2.11,-6.36 2.1,-5.83 2.1,-5.33 2.1,-4.88 2.1,-4.47 2.1,-4.09 2.1,-3.74 2.1,-3.43 2.1,-3.13 2.1,-2.88 2.11,-2.63 2.1,-2.4 2.1,-2.2 2.1,-2.02 2.1,-1.85 2.1,-1.69 2.1,-1.54 2.1,-1.42 2.1,-1.3 2.1,-1.18 2.11,-1.09 2.1,-0.99 2.1,-0.91 2.1,-0.84 2.1,-0.76 2.1,-0.7 2.1,-0.64 2.1,-0.58 2.1,-0.54 2.1,-0.49 2.11,-0.45 2.1,-0.41 2.1,-0.37 2.1,-0.35 2.1,-0.31 2.1,-0.29 2.1,-0.27 2.1,-0.24 2.1,-0.22 2.1,-0.2 2.11,-0.19 2.1,-0.17 2.1,-0.15 2.1,-0.14 2.1,-0.13 2.1,-0.12 2.1,-0.11 2.1,-0.1 2.1,-0.09 2.1,-0.09 2.11,-0.07 2.1,-0.07 2.1,-0.07 2.1,-0.06 2.1,-0.05 2.1,-0.05 2.1,-0.05 2.1,-0.04 2.1,-0.03 2.1,-0.04 2.11,-0.03 2.1,-0.03 2.1,-0.03 2.1,-0.02 2.1,-0.02 2.1,-0.02 2.1,-0.02 2.1,-0.02 2.1,-0.01 2.1,-0.02 2.11,-0.01 2.1,-0.01 2.1,-0.01 2.1,-0.01 2.1,-0.01 2.1,-0.01 2.1,-0.01 2.1,-0.01 2.1,0 2.1,-0.01 2.11,0 2.1,-0.01 2.1,0 2.1,-0.01 2.1,0 2.1,-0.01 2.1,0 2.1,0 2.1,0 2.1,-0.01 2.11,0 2.1,0 2.1,0" /><path
                 inkscape:connector-curvature="0"
                 id="path64"
                 style="fill:none;stroke:#d23737;stroke-width:1.05999994;stroke-linecap:butt;stroke-linejoin:round;stroke-miterlimit:1;stroke-dasharray:none;stroke-opacity:1"
                 d="m 50.73,203.97 2.1,-35.01 2.1,-22.65 2.1,-15.85 2.1,-11.71 2.1,-9.02 2.1,-7.14 2.1,-5.81 2.11,-4.81 2.1,-4.05 2.1,-3.46 2.1,-2.98 2.1,-2.61 2.1,-2.29 2.1,-2.03 2.1,-1.82 2.1,-1.63 2.1,-1.47 2.11,-1.34 2.1,-1.22 2.1,-1.11 2.1,-1.03 2.1,-0.94 2.1,-0.88 2.1,-0.81 2.1,-0.76 2.1,-0.7 2.1,-0.66 2.11,-0.61 2.1,-0.58 2.1,-0.55 2.1,-0.51 2.1,-0.48 2.1,-0.46 2.1,-0.43 2.1,-0.41 2.1,-0.4 2.1,-0.37 2.11,-0.35 2.1,-0.34 2.1,-0.32 2.1,-0.3 2.1,-0.3 2.1,-0.28 2.1,-0.27 2.1,-0.26 2.1,-0.24 2.1,-0.24 2.11,-0.23 2.1,-0.22 2.1,-0.21 2.1,-0.21 2.1,-0.19 2.1,-0.19 2.1,-0.18 2.1,-0.18 2.1,-0.17 2.1,-0.17 2.11,-0.16 2.1,-0.15 2.1,-0.15 2.1,-0.15 2.1,-0.14 2.1,-0.14 2.1,-0.13 2.1,-0.13 2.1,-0.12 2.1,-0.12 2.11,-0.12 2.1,-0.12 2.1,-0.11 2.1,-0.11 2.1,-0.1 2.1,-0.11 2.1,-0.1 2.1,-0.1 2.1,-0.09 2.1,-0.09 2.11,-0.09 2.1,-0.09 2.1,-0.09 2.1,-0.08 2.1,-0.09 2.1,-0.08 2.1,-0.08 2.1,-0.07 2.1,-0.08 2.1,-0.07 2.11,-0.07 2.1,-0.07 2.1,-0.07 2.1,-0.07 2.1,-0.07 2.1,-0.06 2.1,-0.07 2.1,-0.06 2.1,-0.06 2.1,-0.06 2.11,-0.06 2.1,-0.05 2.1,-0.06" /><path
                 inkscape:connector-curvature="0"
                 id="path66"
                 style="fill:#000000;fill-opacity:1;fill-rule:nonzero;stroke:none"
                 d="m 48.6,205.92 c 0,1.17 0.96,2.13 2.13,2.13 1.17,0 2.12,-0.96 2.12,-2.13 0,-1.17 -0.95,-2.12 -2.12,-2.12 -1.17,0 -2.13,0.95 -2.13,2.12" /><path
                 inkscape:connector-curvature="0"
                 id="path68"
                 style="fill:#000000;fill-opacity:1;fill-rule:nonzero;stroke:none"
                 d="m 57.36,104.43 c 0,1.17 0.95,2.13 2.12,2.13 1.17,0 2.13,-0.96 2.13,-2.13 0,-1.17 -0.96,-2.12 -2.13,-2.12 -1.17,0 -2.12,0.95 -2.12,2.12" /><path
                 inkscape:connector-curvature="0"
                 id="path70"
                 style="fill:#000000;fill-opacity:1;fill-rule:nonzero;stroke:none"
                 d="m 66.11,90.81 c 0,1.17 0.96,2.12 2.13,2.12 1.16,0 2.12,-0.95 2.12,-2.12 0,-1.17 -0.96,-2.13 -2.12,-2.13 -1.17,0 -2.13,0.96 -2.13,2.13" /><path
                 inkscape:connector-curvature="0"
                 id="path72"
                 style="fill:#000000;fill-opacity:1;fill-rule:nonzero;stroke:none"
                 d="m 74.86,82.92 c 0,1.17 0.96,2.13 2.13,2.13 1.17,0 2.13,-0.96 2.13,-2.13 0,-1.17 -0.96,-2.13 -2.13,-2.13 -1.17,0 -2.13,0.96 -2.13,2.13" /><path
                 inkscape:connector-curvature="0"
                 id="path74"
                 style="fill:#000000;fill-opacity:1;fill-rule:nonzero;stroke:none"
                 d="m 83.62,76.8 c 0,1.17 0.95,2.12 2.12,2.12 1.17,0 2.13,-0.95 2.13,-2.12 0,-1.17 -0.96,-2.13 -2.13,-2.13 -1.17,0 -2.12,0.96 -2.12,2.13" /><path
                 inkscape:connector-curvature="0"
                 id="path76"
                 style="fill:#000000;fill-opacity:1;fill-rule:nonzero;stroke:none"
                 d="m 92.37,71.97 c 0,1.17 0.96,2.12 2.13,2.12 1.17,0 2.12,-0.95 2.12,-2.12 0,-1.17 -0.95,-2.13 -2.12,-2.13 -1.17,0 -2.13,0.96 -2.13,2.13" /><path
                 inkscape:connector-curvature="0"
                 id="path78"
                 style="fill:#000000;fill-opacity:1;fill-rule:nonzero;stroke:none"
                 d="m 101.13,67.74 c 0,1.17 0.95,2.13 2.12,2.13 1.17,0 2.13,-0.96 2.13,-2.13 0,-1.17 -0.96,-2.12 -2.13,-2.12 -1.17,0 -2.12,0.95 -2.12,2.12" /><path
                 inkscape:connector-curvature="0"
                 id="path80"
                 style="fill:#000000;fill-opacity:1;fill-rule:nonzero;stroke:none"
                 d="m 109.88,63.86 c 0,1.17 0.96,2.13 2.13,2.13 1.17,0 2.12,-0.96 2.12,-2.13 0,-1.17 -0.95,-2.12 -2.12,-2.12 -1.17,0 -2.13,0.95 -2.13,2.12" /><path
                 inkscape:connector-curvature="0"
                 id="path82"
                 style="fill:#000000;fill-opacity:1;fill-rule:nonzero;stroke:none"
                 d="m 118.63,60.8 c 0,1.17 0.96,2.13 2.13,2.13 1.17,0 2.13,-0.96 2.13,-2.13 0,-1.17 -0.96,-2.12 -2.13,-2.12 -1.17,0 -2.13,0.95 -2.13,2.12" /><path
                 inkscape:connector-curvature="0"
                 id="path84"
                 style="fill:#000000;fill-opacity:1;fill-rule:nonzero;stroke:none"
                 d="m 127.39,57.83 c 0,1.17 0.96,2.12 2.12,2.12 1.17,0 2.13,-0.95 2.13,-2.12 0,-1.17 -0.96,-2.13 -2.13,-2.13 -1.16,0 -2.12,0.96 -2.12,2.13" /><path
                 inkscape:connector-curvature="0"
                 id="path86"
                 style="fill:#000000;fill-opacity:1;fill-rule:nonzero;stroke:none"
                 d="m 136.14,54.72 c 0,1.17 0.96,2.13 2.13,2.13 1.17,0 2.12,-0.96 2.12,-2.13 0,-1.17 -0.95,-2.12 -2.12,-2.12 -1.17,0 -2.13,0.95 -2.13,2.12" /><path
                 inkscape:connector-curvature="0"
                 id="path88"
                 style="fill:#000000;fill-opacity:1;fill-rule:nonzero;stroke:none"
                 d="m 144.9,53.77 c 0,1.17 0.95,2.13 2.12,2.13 1.17,0 2.13,-0.96 2.13,-2.13 0,-1.17 -0.96,-2.12 -2.13,-2.12 -1.17,0 -2.12,0.95 -2.12,2.12" /><path
                 inkscape:connector-curvature="0"
                 id="path90"
                 style="fill:#000000;fill-opacity:1;fill-rule:nonzero;stroke:none"
                 d="m 153.65,49.63 c 0,1.17 0.96,2.13 2.13,2.13 1.17,0 2.12,-0.96 2.12,-2.13 0,-1.16 -0.95,-2.12 -2.12,-2.12 -1.17,0 -2.13,0.96 -2.13,2.12" /><path
                 inkscape:connector-curvature="0"
                 id="path92"
                 style="fill:#000000;fill-opacity:1;fill-rule:nonzero;stroke:none"
                 d="m 162.41,48.26 c 0,1.16 0.95,2.12 2.12,2.12 1.17,0 2.13,-0.96 2.13,-2.12 0,-1.17 -0.96,-2.13 -2.13,-2.13 -1.17,0 -2.12,0.96 -2.12,2.13" /><path
                 inkscape:connector-curvature="0"
                 id="path94"
                 style="fill:#000000;fill-opacity:1;fill-rule:nonzero;stroke:none"
                 d="m 171.16,47.22 c 0,1.17 0.96,2.13 2.13,2.13 1.16,0 2.12,-0.96 2.12,-2.13 0,-1.17 -0.96,-2.13 -2.12,-2.13 -1.17,0 -2.13,0.96 -2.13,2.13" /><path
                 inkscape:connector-curvature="0"
                 id="path96"
                 style="fill:#000000;fill-opacity:1;fill-rule:nonzero;stroke:none"
                 d="m 179.91,46.53 c 0,1.17 0.96,2.13 2.13,2.13 1.17,0 2.13,-0.96 2.13,-2.13 0,-1.17 -0.96,-2.13 -2.13,-2.13 -1.17,0 -2.13,0.96 -2.13,2.13" /><path
                 inkscape:connector-curvature="0"
                 id="path98"
                 style="fill:#000000;fill-opacity:1;fill-rule:nonzero;stroke:none"
                 d="m 188.67,45.97 c 0,1.17 0.95,2.13 2.12,2.13 1.17,0 2.13,-0.96 2.13,-2.13 0,-1.17 -0.96,-2.13 -2.13,-2.13 -1.17,0 -2.12,0.96 -2.12,2.13" /><path
                 inkscape:connector-curvature="0"
                 id="path100"
                 style="fill:#000000;fill-opacity:1;fill-rule:nonzero;stroke:none"
                 d="m 197.42,45.63 c 0,1.16 0.96,2.12 2.13,2.12 1.17,0 2.12,-0.96 2.12,-2.12 0,-1.17 -0.95,-2.13 -2.12,-2.13 -1.17,0 -2.13,0.96 -2.13,2.13" /><path
                 inkscape:connector-curvature="0"
                 id="path102"
                 style="fill:#000000;fill-opacity:1;fill-rule:nonzero;stroke:none"
                 d="m 206.18,45.32 c 0,1.17 0.95,2.13 2.12,2.13 1.17,0 2.13,-0.96 2.13,-2.13 0,-1.17 -0.96,-2.12 -2.13,-2.12 -1.17,0 -2.12,0.95 -2.12,2.12" /><path
                 inkscape:connector-curvature="0"
                 id="path104"
                 style="fill:#000000;fill-opacity:1;fill-rule:nonzero;stroke:none"
                 d="m 214.93,45.06 c 0,1.17 0.96,2.13 2.13,2.13 1.17,0 2.12,-0.96 2.12,-2.13 0,-1.16 -0.95,-2.12 -2.12,-2.12 -1.17,0 -2.13,0.96 -2.13,2.12" /><path
                 inkscape:connector-curvature="0"
                 id="path106"
                 style="fill:#000000;fill-opacity:1;fill-rule:nonzero;stroke:none"
                 d="m 223.68,44.89 c 0,1.17 0.96,2.13 2.13,2.13 1.17,0 2.13,-0.96 2.13,-2.13 0,-1.17 -0.96,-2.12 -2.13,-2.12 -1.17,0 -2.13,0.95 -2.13,2.12" /><path
                 inkscape:connector-curvature="0"
                 id="path108"
                 style="fill:#000000;fill-opacity:1;fill-rule:nonzero;stroke:none"
                 d="m 232.44,44.68 c 0,1.17 0.96,2.12 2.12,2.12 1.17,0 2.13,-0.95 2.13,-2.12 0,-1.17 -0.96,-2.13 -2.13,-2.13 -1.16,0 -2.12,0.96 -2.12,2.13" /><path
                 inkscape:connector-curvature="0"
                 id="path110"
                 style="fill:#000000;fill-opacity:1;fill-rule:nonzero;stroke:none"
                 d="m 241.19,44.55 c 0,1.17 0.96,2.12 2.13,2.12 1.17,0 2.12,-0.95 2.12,-2.12 0,-1.17 -0.95,-2.13 -2.12,-2.13 -1.17,0 -2.13,0.96 -2.13,2.13" /><path
                 inkscape:connector-curvature="0"
                 id="path112"
                 style="fill:#000000;fill-opacity:1;fill-rule:nonzero;stroke:none"
                 d="m 249.95,44.42 c 0,1.17 0.95,2.12 2.12,2.12 1.17,0 2.13,-0.95 2.13,-2.12 0,-1.17 -0.96,-2.13 -2.13,-2.13 -1.17,0 -2.12,0.96 -2.12,2.13" /><path
                 inkscape:connector-curvature="0"
                 id="path114"
                 style="fill:none;stroke:#000000;stroke-width:1.05999994;stroke-linecap:butt;stroke-linejoin:round;stroke-miterlimit:10;stroke-dasharray:none;stroke-opacity:1"
                 d="m 50.73,205.92 8.75,0" /><path
                 inkscape:connector-curvature="0"
                 id="path116"
                 style="fill:none;stroke:#000000;stroke-width:1.05999994;stroke-linecap:butt;stroke-linejoin:round;stroke-miterlimit:10;stroke-dasharray:none;stroke-opacity:1"
                 d="m 59.48,104.43 8.76,0" /><path
                 inkscape:connector-curvature="0"
                 id="path118"
                 style="fill:none;stroke:#000000;stroke-width:1.05999994;stroke-linecap:butt;stroke-linejoin:round;stroke-miterlimit:10;stroke-dasharray:none;stroke-opacity:1"
                 d="m 68.24,90.81 8.75,0" /><path
                 inkscape:connector-curvature="0"
                 id="path120"
                 style="fill:none;stroke:#000000;stroke-width:1.05999994;stroke-linecap:butt;stroke-linejoin:round;stroke-miterlimit:10;stroke-dasharray:none;stroke-opacity:1"
                 d="m 76.99,82.92 8.75,0" /><path
                 inkscape:connector-curvature="0"
                 id="path122"
                 style="fill:none;stroke:#000000;stroke-width:1.05999994;stroke-linecap:butt;stroke-linejoin:round;stroke-miterlimit:10;stroke-dasharray:none;stroke-opacity:1"
                 d="m 85.74,76.8 8.76,0" /><path
                 inkscape:connector-curvature="0"
                 id="path124"
                 style="fill:none;stroke:#000000;stroke-width:1.05999994;stroke-linecap:butt;stroke-linejoin:round;stroke-miterlimit:10;stroke-dasharray:none;stroke-opacity:1"
                 d="m 94.5,71.97 8.75,0" /><path
                 inkscape:connector-curvature="0"
                 id="path126"
                 style="fill:none;stroke:#000000;stroke-width:1.05999994;stroke-linecap:butt;stroke-linejoin:round;stroke-miterlimit:10;stroke-dasharray:none;stroke-opacity:1"
                 d="m 103.25,67.74 8.76,0" /><path
                 inkscape:connector-curvature="0"
                 id="path128"
                 style="fill:none;stroke:#000000;stroke-width:1.05999994;stroke-linecap:butt;stroke-linejoin:round;stroke-miterlimit:10;stroke-dasharray:none;stroke-opacity:1"
                 d="m 112.01,63.86 8.75,0" /><path
                 inkscape:connector-curvature="0"
                 id="path130"
                 style="fill:none;stroke:#000000;stroke-width:1.05999994;stroke-linecap:butt;stroke-linejoin:round;stroke-miterlimit:10;stroke-dasharray:none;stroke-opacity:1"
                 d="m 120.76,60.8 8.75,0" /><path
                 inkscape:connector-curvature="0"
                 id="path132"
                 style="fill:none;stroke:#000000;stroke-width:1.05999994;stroke-linecap:butt;stroke-linejoin:round;stroke-miterlimit:10;stroke-dasharray:none;stroke-opacity:1"
                 d="m 129.51,57.83 8.76,0" /><path
                 inkscape:connector-curvature="0"
                 id="path134"
                 style="fill:none;stroke:#000000;stroke-width:1.05999994;stroke-linecap:butt;stroke-linejoin:round;stroke-miterlimit:10;stroke-dasharray:none;stroke-opacity:1"
                 d="m 138.27,54.72 8.75,0" /><path
                 inkscape:connector-curvature="0"
                 id="path136"
                 style="fill:none;stroke:#000000;stroke-width:1.05999994;stroke-linecap:butt;stroke-linejoin:round;stroke-miterlimit:10;stroke-dasharray:none;stroke-opacity:1"
                 d="m 147.02,53.77 8.76,0" /><path
                 inkscape:connector-curvature="0"
                 id="path138"
                 style="fill:none;stroke:#000000;stroke-width:1.05999994;stroke-linecap:butt;stroke-linejoin:round;stroke-miterlimit:10;stroke-dasharray:none;stroke-opacity:1"
                 d="m 155.78,49.63 8.75,0" /><path
                 inkscape:connector-curvature="0"
                 id="path140"
                 style="fill:none;stroke:#000000;stroke-width:1.05999994;stroke-linecap:butt;stroke-linejoin:round;stroke-miterlimit:10;stroke-dasharray:none;stroke-opacity:1"
                 d="m 164.53,48.26 8.76,0" /><path
                 inkscape:connector-curvature="0"
                 id="path142"
                 style="fill:none;stroke:#000000;stroke-width:1.05999994;stroke-linecap:butt;stroke-linejoin:round;stroke-miterlimit:10;stroke-dasharray:none;stroke-opacity:1"
                 d="m 173.29,47.22 8.75,0" /><path
                 inkscape:connector-curvature="0"
                 id="path144"
                 style="fill:none;stroke:#000000;stroke-width:1.05999994;stroke-linecap:butt;stroke-linejoin:round;stroke-miterlimit:10;stroke-dasharray:none;stroke-opacity:1"
                 d="m 182.04,46.53 8.75,0" /><path
                 inkscape:connector-curvature="0"
                 id="path146"
                 style="fill:none;stroke:#000000;stroke-width:1.05999994;stroke-linecap:butt;stroke-linejoin:round;stroke-miterlimit:10;stroke-dasharray:none;stroke-opacity:1"
                 d="m 190.79,45.97 8.76,0" /><path
                 inkscape:connector-curvature="0"
                 id="path148"
                 style="fill:none;stroke:#000000;stroke-width:1.05999994;stroke-linecap:butt;stroke-linejoin:round;stroke-miterlimit:10;stroke-dasharray:none;stroke-opacity:1"
                 d="m 199.55,45.63 8.75,0" /><path
                 inkscape:connector-curvature="0"
                 id="path150"
                 style="fill:none;stroke:#000000;stroke-width:1.05999994;stroke-linecap:butt;stroke-linejoin:round;stroke-miterlimit:10;stroke-dasharray:none;stroke-opacity:1"
                 d="m 208.3,45.32 8.76,0" /><path
                 inkscape:connector-curvature="0"
                 id="path152"
                 style="fill:none;stroke:#000000;stroke-width:1.05999994;stroke-linecap:butt;stroke-linejoin:round;stroke-miterlimit:10;stroke-dasharray:none;stroke-opacity:1"
                 d="m 217.06,45.06 8.75,0" /><path
                 inkscape:connector-curvature="0"
                 id="path154"
                 style="fill:none;stroke:#000000;stroke-width:1.05999994;stroke-linecap:butt;stroke-linejoin:round;stroke-miterlimit:10;stroke-dasharray:none;stroke-opacity:1"
                 d="m 225.81,44.89 8.75,0" /><path
                 inkscape:connector-curvature="0"
                 id="path156"
                 style="fill:none;stroke:#000000;stroke-width:1.05999994;stroke-linecap:butt;stroke-linejoin:round;stroke-miterlimit:10;stroke-dasharray:none;stroke-opacity:1"
                 d="m 234.56,44.68 8.76,0" /><path
                 inkscape:connector-curvature="0"
                 id="path158"
                 style="fill:none;stroke:#000000;stroke-width:1.05999994;stroke-linecap:butt;stroke-linejoin:round;stroke-miterlimit:10;stroke-dasharray:none;stroke-opacity:1"
                 d="m 243.32,44.55 8.75,0" /><path
                 inkscape:connector-curvature="0"
                 id="path160"
                 style="fill:none;stroke:#000000;stroke-width:1.05999994;stroke-linecap:butt;stroke-linejoin:round;stroke-miterlimit:10;stroke-dasharray:none;stroke-opacity:1"
                 d="m 252.07,44.42 8.76,0" /></g></g><g
             id="g230" /><g
             id="g232" /><g
             id="g234"><text
               id="text236"
               style="font-variant:normal;font-weight:normal;font-size:7px;font-family:Roboto;-inkscape-font-specification:Roboto;writing-mode:lr-tb;fill:#000000;fill-opacity:1;fill-rule:nonzero;stroke:none"
               transform="matrix(1,0,0,-1,26.55,38.25)"><tspan
                 id="tspan238"
                 sodipodi:role="line"
                 y="0"
                 x="0">0.00</tspan></text>
<text
               id="text240"
               style="font-variant:normal;font-weight:normal;font-size:7px;font-family:Roboto;-inkscape-font-specification:Roboto;writing-mode:lr-tb;fill:#000000;fill-opacity:1;fill-rule:nonzero;stroke:none"
               transform="matrix(1,0,0,-1,26.55,81.36)"><tspan
                 id="tspan242"
                 sodipodi:role="line"
                 y="0"
                 x="0">0.01</tspan></text>
<text
               id="text244"
               style="font-variant:normal;font-weight:normal;font-size:7px;font-family:Roboto;-inkscape-font-specification:Roboto;writing-mode:lr-tb;fill:#000000;fill-opacity:1;fill-rule:nonzero;stroke:none"
               transform="matrix(1,0,0,-1,26.55,124.47)"><tspan
                 id="tspan246"
                 sodipodi:role="line"
                 y="0"
                 x="0">0.02</tspan></text>
<text
               id="text248"
               style="font-variant:normal;font-weight:normal;font-size:7px;font-family:Roboto;-inkscape-font-specification:Roboto;writing-mode:lr-tb;fill:#000000;fill-opacity:1;fill-rule:nonzero;stroke:none"
               transform="matrix(1,0,0,-1,26.55,167.59)"><tspan
                 id="tspan250"
                 sodipodi:role="line"
                 y="0"
                 x="0">0.03</tspan></text>
<text
               id="text252"
               style="font-variant:normal;font-weight:normal;font-size:7px;font-family:Roboto;-inkscape-font-specification:Roboto;writing-mode:lr-tb;fill:#000000;fill-opacity:1;fill-rule:nonzero;stroke:none"
               transform="matrix(1,0,0,-1,26.55,210.7)"><tspan
                 id="tspan254"
                 sodipodi:role="line"
                 y="0"
                 x="0">0.04</tspan></text>
</g><g
             id="g256" /><g
             id="g258" /><g
             id="g260" /><g
             id="g262" /><g
             id="g264" /><g
             id="g266" /><g
             id="g268" /><g
             id="g270" /><g
             id="g272" /><g
             id="g274"><text
               id="text276"
               style="font-variant:normal;font-weight:normal;font-size:7px;font-family:Roboto;-inkscape-font-specification:Roboto;writing-mode:lr-tb;fill:#000000;fill-opacity:1;fill-rule:nonzero;stroke:none"
               transform="scale(1,-1)"
               x="48.98"
               y="-32.560001"><tspan
                 id="tspan278"
                 y="-32.560001"
                 x="48.98">0</tspan></text>
<text
               id="text280"
               style="font-variant:normal;font-weight:normal;font-size:7px;font-family:Roboto;-inkscape-font-specification:Roboto;writing-mode:lr-tb;fill:#000000;fill-opacity:1;fill-rule:nonzero;stroke:none"
               transform="scale(1,-1)"
               x="75.239998"
               y="-32.560001"><tspan
                 id="tspan282"
                 y="-32.560001"
                 x="75.239998">3</tspan></text>
<text
               id="text284"
               style="font-variant:normal;font-weight:normal;font-size:7px;font-family:Roboto;-inkscape-font-specification:Roboto;writing-mode:lr-tb;fill:#000000;fill-opacity:1;fill-rule:nonzero;stroke:none"
               transform="scale(1,-1)"
               x="101.5"
               y="-32.560001"><tspan
                 id="tspan286"
                 y="-32.560001"
                 x="101.5">6</tspan></text>
<text
               id="text288"
               style="font-variant:normal;font-weight:normal;font-size:7px;font-family:Roboto;-inkscape-font-specification:Roboto;writing-mode:lr-tb;fill:#000000;fill-opacity:1;fill-rule:nonzero;stroke:none"
               transform="scale(1,-1)"
               x="127.76"
               y="-32.560001"><tspan
                 id="tspan290"
                 y="-32.560001"
                 x="127.76">9</tspan></text>
<text
               id="text292"
               style="font-variant:normal;font-weight:normal;font-size:7px;font-family:Roboto;-inkscape-font-specification:Roboto;writing-mode:lr-tb;fill:#000000;fill-opacity:1;fill-rule:nonzero;stroke:none"
               transform="scale(1,-1)"
               x="152.28"
               y="-32.560001"><tspan
                 id="tspan294"
                 sodipodi:role="line"
                 y="-32.560001"
                 x="152.28">12</tspan></text>
<text
               id="text296"
               style="font-variant:normal;font-weight:normal;font-size:7px;font-family:Roboto;-inkscape-font-specification:Roboto;writing-mode:lr-tb;fill:#000000;fill-opacity:1;fill-rule:nonzero;stroke:none"
               transform="scale(1,-1)"
               x="178.53999"
               y="-32.560001"><tspan
                 id="tspan298"
                 sodipodi:role="line"
                 y="-32.560001"
                 x="178.53999">15</tspan></text>
<text
               id="text300"
               style="font-variant:normal;font-weight:normal;font-size:7px;font-family:Roboto;-inkscape-font-specification:Roboto;writing-mode:lr-tb;fill:#000000;fill-opacity:1;fill-rule:nonzero;stroke:none"
               transform="scale(1,-1)"
               x="204.8"
               y="-32.560001"><tspan
                 id="tspan302"
                 sodipodi:role="line"
                 y="-32.560001"
                 x="204.8">18</tspan></text>
<text
               id="text304"
               style="font-variant:normal;font-weight:normal;font-size:7px;font-family:Roboto;-inkscape-font-specification:Roboto;writing-mode:lr-tb;fill:#000000;fill-opacity:1;fill-rule:nonzero;stroke:none"
               transform="scale(1,-1)"
               x="231.06"
               y="-32.560001"><tspan
                 id="tspan306"
                 sodipodi:role="line"
                 y="-32.560001"
                 x="231.06">21</tspan></text>
<text
               id="text308"
               style="font-variant:normal;font-weight:normal;font-size:7px;font-family:Roboto;-inkscape-font-specification:Roboto;writing-mode:lr-tb;fill:#000000;fill-opacity:1;fill-rule:nonzero;stroke:none"
               transform="scale(1,-1)"
               x="257.32999"
               y="-32.560001"><tspan
                 id="tspan310"
                 sodipodi:role="line"
                 y="-32.560001"
                 x="257.32999">24</tspan></text>
</g><g
             id="g312" /><g
             id="g314" /><g
             id="g316" /><g
             id="g318" /><g
             id="g320" /><g
             id="g370" /><g
             id="g372" /><g
             id="g390" /><g
             id="g392" /><g
             id="g394" /><g
             id="g396" /><g
             id="g398" /></g></g></g><text
       xml:space="preserve"
       style="font-style:normal;font-weight:normal;font-size:11px;line-height:125%;font-family:sans-serif;letter-spacing:0px;word-spacing:0px;fill:#d23737;fill-opacity:1;stroke:none;stroke-width:1px;stroke-linecap:butt;stroke-linejoin:miter;stroke-opacity:1"
       x="49.20385"
       y="-172.97749"
       id="text4926"
       sodipodi:linespacing="125%"
       transform="scale(1,-1)"><tspan
         sodipodi:role="line"
         id="tspan4928"
         x="49.20385"
         y="-172.97749"
         style="font-style:normal;font-variant:normal;font-weight:normal;font-stretch:normal;font-size:9px;font-family:Roboto;-inkscape-font-specification:Roboto;fill:#d23737;fill-opacity:1">q(x) = f(x, λ=0.04, γ=30.02)</tspan><tspan
         sodipodi:role="line"
         x="49.20385"
         y="-164.70694"
         style="font-style:normal;font-variant:normal;font-weight:normal;font-stretch:normal;font-size:6px;font-family:Roboto;-inkscape-font-specification:Roboto;fill:#d23737;fill-opacity:1"
         id="tspan9074">Gamma-Gompertz frailty model</tspan></text>
<text
       xml:space="preserve"
       style="font-style:normal;font-weight:normal;font-size:32px;line-height:125%;font-family:sans-serif;letter-spacing:0px;word-spacing:0px;fill:#000000;fill-opacity:1;stroke:none;stroke-width:1px;stroke-linecap:butt;stroke-linejoin:miter;stroke-opacity:1"
       x="102.10835"
       y="-11.932786"
       id="text5022-9"
       sodipodi:linespacing="125%"
       transform="scale(1,-1)"><tspan
         sodipodi:role="line"
         id="tspan5024-1"
         x="102.10835"
         y="-11.932786"
         style="font-style:normal;font-variant:normal;font-weight:normal;font-stretch:normal;font-size:9px;line-height:125%;font-family:Roboto;-inkscape-font-specification:'Roboto, Normal';text-align:start;writing-mode:lr-tb;text-anchor:start">Months of age</tspan></text>
<text
       xml:space="preserve"
       style="font-style:normal;font-weight:normal;font-size:32px;line-height:125%;font-family:sans-serif;letter-spacing:0px;word-spacing:0px;fill:#000000;fill-opacity:1;stroke:none;stroke-width:1px;stroke-linecap:butt;stroke-linejoin:miter;stroke-opacity:1"
       x="2.2145422"
       y="-200.49854"
       id="text5022"
       sodipodi:linespacing="125%"
       transform="scale(1,-1)"><tspan
         sodipodi:role="line"
         id="tspan5024"
         x="2.2145422"
         y="-200.49854"
         style="font-size:9px">q<tspan
   style="font-style:italic;font-size:4.67999983px;baseline-shift:sub"
   id="tspan7692">x</tspan></tspan></text>
</g></svg>