<?xml version="1.0" encoding="UTF-8" standalone="no"?>
<!-- Created with Inkscape (http://www.inkscape.org/) -->

<svg
   xmlns:dc="http://purl.org/dc/elements/1.1/"
   xmlns:cc="http://creativecommons.org/ns#"
   xmlns:rdf="http://www.w3.org/1999/02/22-rdf-syntax-ns#"
   xmlns:svg="http://www.w3.org/2000/svg"
   xmlns="http://www.w3.org/2000/svg"
   xmlns:sodipodi="http://sodipodi.sourceforge.net/DTD/sodipodi-0.dtd"
   xmlns:inkscape="http://www.inkscape.org/namespaces/inkscape"
   id="svg2"
   version="1.1"
   inkscape:version="0.91 r13725"
   xml:space="preserve"
   width="366.13007"
   height="259.70764"
   viewBox="0 0 366.13007 259.70764"
   sodipodi:docname="adaptive_models0.svg"
   inkscape:export-filename="/home/jon/lucile/share/Dropbox/sci/2016-09-selimort/doc/2017-05-29-presentation_popfest/assets/adaptive_models2.png"
   inkscape:export-xdpi="491.63"
   inkscape:export-ydpi="491.63"><sodipodi:namedview
     pagecolor="#ffffff"
     bordercolor="#666666"
     borderopacity="1"
     objecttolerance="10"
     gridtolerance="10"
     guidetolerance="10"
     inkscape:pageopacity="0"
     inkscape:pageshadow="2"
     inkscape:window-width="1920"
     inkscape:window-height="1056"
     id="namedview4"
     showgrid="false"
     inkscape:zoom="2.2199352"
     inkscape:cx="135.40927"
     inkscape:cy="88.851663"
     inkscape:window-x="0"
     inkscape:window-y="24"
     inkscape:window-maximized="1"
     inkscape:current-layer="g10"
     fit-margin-top="0"
     fit-margin-left="0"
     fit-margin-right="0"
     fit-margin-bottom="0" /><metadata
     id="metadata8"><rdf:RDF><cc:Work
         rdf:about=""><dc:format>image/svg+xml</dc:format><dc:type
           rdf:resource="http://purl.org/dc/dcmitype/StillImage" /><dc:title></dc:title></cc:Work></rdf:RDF></metadata><defs
     id="defs6"><clipPath
       id="clipPath18"
       clipPathUnits="userSpaceOnUse"><path
         inkscape:connector-curvature="0"
         id="path20"
         d="M 0,0 288,0 288,230 0,230 0,0 Z" /></clipPath><clipPath
       id="clipPath32"
       clipPathUnits="userSpaceOnUse"><path
         inkscape:connector-curvature="0"
         id="path34"
         d="m 2.27,1.81 283.46,0 0,226.77 -283.46,0 0,-226.77 z" /></clipPath><clipPath
       id="clipPath46"
       clipPathUnits="userSpaceOnUse"><path
         inkscape:connector-curvature="0"
         id="path48"
         d="m 40.22,32.43 231.11,0 0,181.76 -231.11,0 0,-181.76 z" /></clipPath></defs><g
     transform="matrix(1.25,0,0,-1.25,49.828917,267.6211)"
     inkscape:label="plot-adaptive"
     inkscape:groupmode="layer"
     id="g10"><g
       transform="translate(-12,-12)"
       id="g12"><g
         id="g14"><g
           clip-path="url(#clipPath18)"
           id="g16"><g
             id="g22" /><g
             id="g24" /><g
             id="g26" /><g
             id="g28"><g
               clip-path="url(#clipPath32)"
               id="g30" /></g><g
             id="g36" /><g
             id="g38" /><g
             id="g40" /><g
             id="g42"><g
               clip-path="url(#clipPath46)"
               id="g44"><path
                 inkscape:connector-curvature="0"
                 id="path50"
                 style="fill:none;stroke:#000000;stroke-width:0.43039998;stroke-linecap:butt;stroke-linejoin:round;stroke-miterlimit:10;stroke-dasharray:0.43039999, 1.72159996;stroke-dashoffset:0;stroke-opacity:1"
                 d="m 41.82,40.67 219.19105,0"
                 sodipodi:nodetypes="cc" /><path
                 inkscape:connector-curvature="0"
                 id="path52"
                 style="fill:none;stroke:#000000;stroke-width:0.43039998;stroke-linecap:butt;stroke-linejoin:round;stroke-miterlimit:10;stroke-dasharray:0.43039999, 1.72159996;stroke-dashoffset:0;stroke-opacity:1"
                 d="m 41.82,83.78 219.19105,0"
                 sodipodi:nodetypes="cc" /><path
                 inkscape:connector-curvature="0"
                 id="path54"
                 style="fill:none;stroke:#000000;stroke-width:0.43039998;stroke-linecap:butt;stroke-linejoin:round;stroke-miterlimit:10;stroke-dasharray:0.43039999, 1.72159996;stroke-dashoffset:0;stroke-opacity:1"
                 d="m 41.82,126.9 219.19105,0"
                 sodipodi:nodetypes="cc" /><path
                 inkscape:connector-curvature="0"
                 id="path56"
                 style="fill:none;stroke:#000000;stroke-width:0.43039998;stroke-linecap:butt;stroke-linejoin:round;stroke-miterlimit:10;stroke-dasharray:0.43039999, 1.72159996;stroke-dashoffset:0;stroke-opacity:1"
                 d="m 41.82,170.01 219.19105,0"
                 sodipodi:nodetypes="cc" /><path
                 inkscape:connector-curvature="0"
                 id="path58"
                 style="fill:none;stroke:#000000;stroke-width:0.4304;stroke-linecap:butt;stroke-linejoin:round;stroke-miterlimit:10;stroke-dasharray:0.4304,1.7216;stroke-dashoffset:0;stroke-opacity:1"
                 d="m 41.82,213.12 219.19105,0"
                 sodipodi:nodetypes="cc" /><path
                 inkscape:connector-curvature="0"
                 id="path64"
                 style="fill:#000000;fill-opacity:1;fill-rule:nonzero;stroke:none"
                 d="m 48.6,205.92 c 0,1.17 0.96,2.13 2.13,2.13 1.17,0 2.12,-0.96 2.12,-2.13 0,-1.17 -0.95,-2.12 -2.12,-2.12 -1.17,0 -2.13,0.95 -2.13,2.12" /><path
                 inkscape:connector-curvature="0"
                 id="path66"
                 style="fill:#000000;fill-opacity:1;fill-rule:nonzero;stroke:none"
                 d="m 57.36,104.43 c 0,1.17 0.95,2.13 2.12,2.13 1.17,0 2.13,-0.96 2.13,-2.13 0,-1.17 -0.96,-2.12 -2.13,-2.12 -1.17,0 -2.12,0.95 -2.12,2.12" /><path
                 inkscape:connector-curvature="0"
                 id="path68"
                 style="fill:#000000;fill-opacity:1;fill-rule:nonzero;stroke:none"
                 d="m 66.11,90.81 c 0,1.17 0.96,2.12 2.13,2.12 1.16,0 2.12,-0.95 2.12,-2.12 0,-1.17 -0.96,-2.13 -2.12,-2.13 -1.17,0 -2.13,0.96 -2.13,2.13" /><path
                 inkscape:connector-curvature="0"
                 id="path70"
                 style="fill:#000000;fill-opacity:1;fill-rule:nonzero;stroke:none"
                 d="m 74.86,82.92 c 0,1.17 0.96,2.13 2.13,2.13 1.17,0 2.13,-0.96 2.13,-2.13 0,-1.17 -0.96,-2.13 -2.13,-2.13 -1.17,0 -2.13,0.96 -2.13,2.13" /><path
                 inkscape:connector-curvature="0"
                 id="path72"
                 style="fill:#000000;fill-opacity:1;fill-rule:nonzero;stroke:none"
                 d="m 83.62,76.8 c 0,1.17 0.95,2.12 2.12,2.12 1.17,0 2.13,-0.95 2.13,-2.12 0,-1.17 -0.96,-2.13 -2.13,-2.13 -1.17,0 -2.12,0.96 -2.12,2.13" /><path
                 inkscape:connector-curvature="0"
                 id="path74"
                 style="fill:#000000;fill-opacity:1;fill-rule:nonzero;stroke:none"
                 d="m 92.37,71.97 c 0,1.17 0.96,2.12 2.13,2.12 1.17,0 2.12,-0.95 2.12,-2.12 0,-1.17 -0.95,-2.13 -2.12,-2.13 -1.17,0 -2.13,0.96 -2.13,2.13" /><path
                 inkscape:connector-curvature="0"
                 id="path76"
                 style="fill:#000000;fill-opacity:1;fill-rule:nonzero;stroke:none"
                 d="m 101.13,67.74 c 0,1.17 0.95,2.13 2.12,2.13 1.17,0 2.13,-0.96 2.13,-2.13 0,-1.17 -0.96,-2.12 -2.13,-2.12 -1.17,0 -2.12,0.95 -2.12,2.12" /><path
                 inkscape:connector-curvature="0"
                 id="path78"
                 style="fill:#000000;fill-opacity:1;fill-rule:nonzero;stroke:none"
                 d="m 109.88,63.86 c 0,1.17 0.96,2.13 2.13,2.13 1.17,0 2.12,-0.96 2.12,-2.13 0,-1.17 -0.95,-2.12 -2.12,-2.12 -1.17,0 -2.13,0.95 -2.13,2.12" /><path
                 inkscape:connector-curvature="0"
                 id="path80"
                 style="fill:#000000;fill-opacity:1;fill-rule:nonzero;stroke:none"
                 d="m 118.63,60.8 c 0,1.17 0.96,2.13 2.13,2.13 1.17,0 2.13,-0.96 2.13,-2.13 0,-1.17 -0.96,-2.12 -2.13,-2.12 -1.17,0 -2.13,0.95 -2.13,2.12" /><path
                 inkscape:connector-curvature="0"
                 id="path82"
                 style="fill:#000000;fill-opacity:1;fill-rule:nonzero;stroke:none"
                 d="m 127.39,57.83 c 0,1.17 0.96,2.12 2.12,2.12 1.17,0 2.13,-0.95 2.13,-2.12 0,-1.17 -0.96,-2.13 -2.13,-2.13 -1.16,0 -2.12,0.96 -2.12,2.13" /><path
                 inkscape:connector-curvature="0"
                 id="path84"
                 style="fill:#000000;fill-opacity:1;fill-rule:nonzero;stroke:none"
                 d="m 136.14,54.72 c 0,1.17 0.96,2.13 2.13,2.13 1.17,0 2.12,-0.96 2.12,-2.13 0,-1.17 -0.95,-2.12 -2.12,-2.12 -1.17,0 -2.13,0.95 -2.13,2.12" /><path
                 inkscape:connector-curvature="0"
                 id="path86"
                 style="fill:#000000;fill-opacity:1;fill-rule:nonzero;stroke:none"
                 d="m 144.9,53.77 c 0,1.17 0.95,2.13 2.12,2.13 1.17,0 2.13,-0.96 2.13,-2.13 0,-1.17 -0.96,-2.12 -2.13,-2.12 -1.17,0 -2.12,0.95 -2.12,2.12" /><path
                 inkscape:connector-curvature="0"
                 id="path88"
                 style="fill:#000000;fill-opacity:1;fill-rule:nonzero;stroke:none"
                 d="m 153.65,49.63 c 0,1.17 0.96,2.13 2.13,2.13 1.17,0 2.12,-0.96 2.12,-2.13 0,-1.16 -0.95,-2.12 -2.12,-2.12 -1.17,0 -2.13,0.96 -2.13,2.12" /><path
                 inkscape:connector-curvature="0"
                 id="path90"
                 style="fill:#000000;fill-opacity:1;fill-rule:nonzero;stroke:none"
                 d="m 162.41,48.26 c 0,1.16 0.95,2.12 2.12,2.12 1.17,0 2.13,-0.96 2.13,-2.12 0,-1.17 -0.96,-2.13 -2.13,-2.13 -1.17,0 -2.12,0.96 -2.12,2.13" /><path
                 inkscape:connector-curvature="0"
                 id="path92"
                 style="fill:#000000;fill-opacity:1;fill-rule:nonzero;stroke:none"
                 d="m 171.16,47.22 c 0,1.17 0.96,2.13 2.13,2.13 1.16,0 2.12,-0.96 2.12,-2.13 0,-1.17 -0.96,-2.13 -2.12,-2.13 -1.17,0 -2.13,0.96 -2.13,2.13" /><path
                 inkscape:connector-curvature="0"
                 id="path94"
                 style="fill:#000000;fill-opacity:1;fill-rule:nonzero;stroke:none"
                 d="m 179.91,46.53 c 0,1.17 0.96,2.13 2.13,2.13 1.17,0 2.13,-0.96 2.13,-2.13 0,-1.17 -0.96,-2.13 -2.13,-2.13 -1.17,0 -2.13,0.96 -2.13,2.13" /><path
                 inkscape:connector-curvature="0"
                 id="path96"
                 style="fill:#000000;fill-opacity:1;fill-rule:nonzero;stroke:none"
                 d="m 188.67,45.97 c 0,1.17 0.95,2.13 2.12,2.13 1.17,0 2.13,-0.96 2.13,-2.13 0,-1.17 -0.96,-2.13 -2.13,-2.13 -1.17,0 -2.12,0.96 -2.12,2.13" /><path
                 inkscape:connector-curvature="0"
                 id="path98"
                 style="fill:#000000;fill-opacity:1;fill-rule:nonzero;stroke:none"
                 d="m 197.42,45.63 c 0,1.16 0.96,2.12 2.13,2.12 1.17,0 2.12,-0.96 2.12,-2.12 0,-1.17 -0.95,-2.13 -2.12,-2.13 -1.17,0 -2.13,0.96 -2.13,2.13" /><path
                 inkscape:connector-curvature="0"
                 id="path100"
                 style="fill:#000000;fill-opacity:1;fill-rule:nonzero;stroke:none"
                 d="m 206.18,45.32 c 0,1.17 0.95,2.13 2.12,2.13 1.17,0 2.13,-0.96 2.13,-2.13 0,-1.17 -0.96,-2.12 -2.13,-2.12 -1.17,0 -2.12,0.95 -2.12,2.12" /><path
                 inkscape:connector-curvature="0"
                 id="path102"
                 style="fill:#000000;fill-opacity:1;fill-rule:nonzero;stroke:none"
                 d="m 214.93,45.06 c 0,1.17 0.96,2.13 2.13,2.13 1.17,0 2.12,-0.96 2.12,-2.13 0,-1.16 -0.95,-2.12 -2.12,-2.12 -1.17,0 -2.13,0.96 -2.13,2.12" /><path
                 inkscape:connector-curvature="0"
                 id="path104"
                 style="fill:#000000;fill-opacity:1;fill-rule:nonzero;stroke:none"
                 d="m 223.68,44.89 c 0,1.17 0.96,2.13 2.13,2.13 1.17,0 2.13,-0.96 2.13,-2.13 0,-1.17 -0.96,-2.12 -2.13,-2.12 -1.17,0 -2.13,0.95 -2.13,2.12" /><path
                 inkscape:connector-curvature="0"
                 id="path106"
                 style="fill:#000000;fill-opacity:1;fill-rule:nonzero;stroke:none"
                 d="m 232.44,44.68 c 0,1.17 0.96,2.12 2.12,2.12 1.17,0 2.13,-0.95 2.13,-2.12 0,-1.17 -0.96,-2.13 -2.13,-2.13 -1.16,0 -2.12,0.96 -2.12,2.13" /><path
                 inkscape:connector-curvature="0"
                 id="path108"
                 style="fill:#000000;fill-opacity:1;fill-rule:nonzero;stroke:none"
                 d="m 241.19,44.55 c 0,1.17 0.96,2.12 2.13,2.12 1.17,0 2.12,-0.95 2.12,-2.12 0,-1.17 -0.95,-2.13 -2.12,-2.13 -1.17,0 -2.13,0.96 -2.13,2.13" /><path
                 inkscape:connector-curvature="0"
                 id="path110"
                 style="fill:#000000;fill-opacity:1;fill-rule:nonzero;stroke:none"
                 d="m 249.95,44.42 c 0,1.17 0.95,2.12 2.12,2.12 1.17,0 2.13,-0.95 2.13,-2.12 0,-1.17 -0.96,-2.13 -2.13,-2.13 -1.17,0 -2.12,0.96 -2.12,2.13" /><path
                 inkscape:connector-curvature="0"
                 id="path112"
                 style="fill:none;stroke:#000000;stroke-width:1.05999994;stroke-linecap:butt;stroke-linejoin:round;stroke-miterlimit:10;stroke-dasharray:none;stroke-opacity:1"
                 d="m 50.73,205.92 8.75,0" /><path
                 inkscape:connector-curvature="0"
                 id="path114"
                 style="fill:none;stroke:#000000;stroke-width:1.05999994;stroke-linecap:butt;stroke-linejoin:round;stroke-miterlimit:10;stroke-dasharray:none;stroke-opacity:1"
                 d="m 59.48,104.43 8.76,0" /><path
                 inkscape:connector-curvature="0"
                 id="path116"
                 style="fill:none;stroke:#000000;stroke-width:1.05999994;stroke-linecap:butt;stroke-linejoin:round;stroke-miterlimit:10;stroke-dasharray:none;stroke-opacity:1"
                 d="m 68.24,90.81 8.75,0" /><path
                 inkscape:connector-curvature="0"
                 id="path118"
                 style="fill:none;stroke:#000000;stroke-width:1.05999994;stroke-linecap:butt;stroke-linejoin:round;stroke-miterlimit:10;stroke-dasharray:none;stroke-opacity:1"
                 d="m 76.99,82.92 8.75,0" /><path
                 inkscape:connector-curvature="0"
                 id="path120"
                 style="fill:none;stroke:#000000;stroke-width:1.05999994;stroke-linecap:butt;stroke-linejoin:round;stroke-miterlimit:10;stroke-dasharray:none;stroke-opacity:1"
                 d="m 85.74,76.8 8.76,0" /><path
                 inkscape:connector-curvature="0"
                 id="path122"
                 style="fill:none;stroke:#000000;stroke-width:1.05999994;stroke-linecap:butt;stroke-linejoin:round;stroke-miterlimit:10;stroke-dasharray:none;stroke-opacity:1"
                 d="m 94.5,71.97 8.75,0" /><path
                 inkscape:connector-curvature="0"
                 id="path124"
                 style="fill:none;stroke:#000000;stroke-width:1.05999994;stroke-linecap:butt;stroke-linejoin:round;stroke-miterlimit:10;stroke-dasharray:none;stroke-opacity:1"
                 d="m 103.25,67.74 8.76,0" /><path
                 inkscape:connector-curvature="0"
                 id="path126"
                 style="fill:none;stroke:#000000;stroke-width:1.05999994;stroke-linecap:butt;stroke-linejoin:round;stroke-miterlimit:10;stroke-dasharray:none;stroke-opacity:1"
                 d="m 112.01,63.86 8.75,0" /><path
                 inkscape:connector-curvature="0"
                 id="path128"
                 style="fill:none;stroke:#000000;stroke-width:1.05999994;stroke-linecap:butt;stroke-linejoin:round;stroke-miterlimit:10;stroke-dasharray:none;stroke-opacity:1"
                 d="m 120.76,60.8 8.75,0" /><path
                 inkscape:connector-curvature="0"
                 id="path130"
                 style="fill:none;stroke:#000000;stroke-width:1.05999994;stroke-linecap:butt;stroke-linejoin:round;stroke-miterlimit:10;stroke-dasharray:none;stroke-opacity:1"
                 d="m 129.51,57.83 8.76,0" /><path
                 inkscape:connector-curvature="0"
                 id="path132"
                 style="fill:none;stroke:#000000;stroke-width:1.05999994;stroke-linecap:butt;stroke-linejoin:round;stroke-miterlimit:10;stroke-dasharray:none;stroke-opacity:1"
                 d="m 138.27,54.72 8.75,0" /><path
                 inkscape:connector-curvature="0"
                 id="path134"
                 style="fill:none;stroke:#000000;stroke-width:1.05999994;stroke-linecap:butt;stroke-linejoin:round;stroke-miterlimit:10;stroke-dasharray:none;stroke-opacity:1"
                 d="m 147.02,53.77 8.76,0" /><path
                 inkscape:connector-curvature="0"
                 id="path136"
                 style="fill:none;stroke:#000000;stroke-width:1.05999994;stroke-linecap:butt;stroke-linejoin:round;stroke-miterlimit:10;stroke-dasharray:none;stroke-opacity:1"
                 d="m 155.78,49.63 8.75,0" /><path
                 inkscape:connector-curvature="0"
                 id="path138"
                 style="fill:none;stroke:#000000;stroke-width:1.05999994;stroke-linecap:butt;stroke-linejoin:round;stroke-miterlimit:10;stroke-dasharray:none;stroke-opacity:1"
                 d="m 164.53,48.26 8.76,0" /><path
                 inkscape:connector-curvature="0"
                 id="path140"
                 style="fill:none;stroke:#000000;stroke-width:1.05999994;stroke-linecap:butt;stroke-linejoin:round;stroke-miterlimit:10;stroke-dasharray:none;stroke-opacity:1"
                 d="m 173.29,47.22 8.75,0" /><path
                 inkscape:connector-curvature="0"
                 id="path142"
                 style="fill:none;stroke:#000000;stroke-width:1.05999994;stroke-linecap:butt;stroke-linejoin:round;stroke-miterlimit:10;stroke-dasharray:none;stroke-opacity:1"
                 d="m 182.04,46.53 8.75,0" /><path
                 inkscape:connector-curvature="0"
                 id="path144"
                 style="fill:none;stroke:#000000;stroke-width:1.05999994;stroke-linecap:butt;stroke-linejoin:round;stroke-miterlimit:10;stroke-dasharray:none;stroke-opacity:1"
                 d="m 190.79,45.97 8.76,0" /><path
                 inkscape:connector-curvature="0"
                 id="path146"
                 style="fill:none;stroke:#000000;stroke-width:1.05999994;stroke-linecap:butt;stroke-linejoin:round;stroke-miterlimit:10;stroke-dasharray:none;stroke-opacity:1"
                 d="m 199.55,45.63 8.75,0" /><path
                 inkscape:connector-curvature="0"
                 id="path148"
                 style="fill:none;stroke:#000000;stroke-width:1.05999994;stroke-linecap:butt;stroke-linejoin:round;stroke-miterlimit:10;stroke-dasharray:none;stroke-opacity:1"
                 d="m 208.3,45.32 8.76,0" /><path
                 inkscape:connector-curvature="0"
                 id="path150"
                 style="fill:none;stroke:#000000;stroke-width:1.05999994;stroke-linecap:butt;stroke-linejoin:round;stroke-miterlimit:10;stroke-dasharray:none;stroke-opacity:1"
                 d="m 217.06,45.06 8.75,0" /><path
                 inkscape:connector-curvature="0"
                 id="path152"
                 style="fill:none;stroke:#000000;stroke-width:1.05999994;stroke-linecap:butt;stroke-linejoin:round;stroke-miterlimit:10;stroke-dasharray:none;stroke-opacity:1"
                 d="m 225.81,44.89 8.75,0" /><path
                 inkscape:connector-curvature="0"
                 id="path154"
                 style="fill:none;stroke:#000000;stroke-width:1.05999994;stroke-linecap:butt;stroke-linejoin:round;stroke-miterlimit:10;stroke-dasharray:none;stroke-opacity:1"
                 d="m 234.56,44.68 8.76,0" /><path
                 inkscape:connector-curvature="0"
                 id="path156"
                 style="fill:none;stroke:#000000;stroke-width:1.05999994;stroke-linecap:butt;stroke-linejoin:round;stroke-miterlimit:10;stroke-dasharray:none;stroke-opacity:1"
                 d="m 243.32,44.55 8.75,0" /><path
                 inkscape:connector-curvature="0"
                 id="path158"
                 style="fill:none;stroke:#000000;stroke-width:1.05999994;stroke-linecap:butt;stroke-linejoin:round;stroke-miterlimit:10;stroke-dasharray:none;stroke-opacity:1"
                 d="m 252.07,44.42 8.76,0" /></g></g><g
             id="g280" /><g
             id="g282" /><g
             id="g284"><text
               id="text286"
               style="font-variant:normal;font-weight:normal;font-size:7px;font-family:Roboto;-inkscape-font-specification:Roboto;text-align:end;writing-mode:lr-tb;text-anchor:end;fill:#000000;fill-opacity:1;fill-rule:nonzero;stroke:none"
               transform="matrix(1,0,0,-1,26.55,38.25)"
               x="12.861816"
               y="0"><tspan
                 id="tspan288"
                 sodipodi:role="line"
                 y="0"
                 x="12.861816">0</tspan></text>
<text
               id="text290"
               style="font-variant:normal;font-weight:normal;font-size:7px;font-family:Roboto;-inkscape-font-specification:Roboto;text-align:end;writing-mode:lr-tb;text-anchor:end;fill:#000000;fill-opacity:1;fill-rule:nonzero;stroke:none"
               transform="matrix(1,0,0,-1,26.55,81.36)"
               x="11.819336"
               y="0"><tspan
                 id="tspan292"
                 sodipodi:role="line"
                 y="0"
                 x="11.819336">.01</tspan></text>
<text
               id="text294"
               style="font-variant:normal;font-weight:normal;font-size:7px;font-family:Roboto;-inkscape-font-specification:Roboto;text-align:end;writing-mode:lr-tb;text-anchor:end;fill:#000000;fill-opacity:1;fill-rule:nonzero;stroke:none"
               transform="matrix(1,0,0,-1,26.55,124.47)"
               x="13.001953"
               y="0"><tspan
                 id="tspan296"
                 sodipodi:role="line"
                 y="0"
                 x="13.001953">.02</tspan></text>
<text
               id="text298"
               style="font-variant:normal;font-weight:normal;font-size:7px;font-family:Roboto;-inkscape-font-specification:Roboto;text-align:end;writing-mode:lr-tb;text-anchor:end;fill:#000000;fill-opacity:1;fill-rule:nonzero;stroke:none"
               transform="matrix(1,0,0,-1,26.55,167.59)"
               x="12.803711"
               y="0"><tspan
                 id="tspan300"
                 sodipodi:role="line"
                 y="0"
                 x="12.803711">.03</tspan></text>
<text
               id="text302"
               style="font-variant:normal;font-weight:normal;font-size:7px;font-family:Roboto;-inkscape-font-specification:Roboto;text-align:end;writing-mode:lr-tb;text-anchor:end;fill:#000000;fill-opacity:1;fill-rule:nonzero;stroke:none"
               transform="matrix(1,0,0,-1,26.55,210.7)"
               x="13.101074"
               y="0"><tspan
                 id="tspan304"
                 sodipodi:role="line"
                 y="0"
                 x="13.101074">.04</tspan></text>
</g><g
             id="g306" /><g
             id="g308" /><g
             id="g310" /><g
             id="g312" /><g
             id="g314" /><g
             id="g316" /><g
             id="g318" /><g
             id="g320" /><g
             id="g322" /><g
             id="g324"><text
               id="text326"
               style="font-variant:normal;font-weight:normal;font-size:7px;font-family:Roboto;-inkscape-font-specification:Roboto;writing-mode:lr-tb;fill:#000000;fill-opacity:1;fill-rule:nonzero;stroke:none"
               transform="scale(1,-1)"
               x="48.98"
               y="-30.960001"><tspan
                 id="tspan328"
                 y="-30.960001"
                 x="48.98">0</tspan></text>
<text
               id="text330"
               style="font-variant:normal;font-weight:normal;font-size:7px;font-family:Roboto;-inkscape-font-specification:Roboto;writing-mode:lr-tb;fill:#000000;fill-opacity:1;fill-rule:nonzero;stroke:none"
               transform="scale(1,-1)"
               x="75.239998"
               y="-30.960001"><tspan
                 id="tspan332"
                 y="-30.960001"
                 x="75.239998">3</tspan></text>
<text
               id="text334"
               style="font-variant:normal;font-weight:normal;font-size:7px;font-family:Roboto;-inkscape-font-specification:Roboto;writing-mode:lr-tb;fill:#000000;fill-opacity:1;fill-rule:nonzero;stroke:none"
               transform="scale(1,-1)"
               x="101.5"
               y="-30.960001"><tspan
                 id="tspan336"
                 y="-30.960001"
                 x="101.5">6</tspan></text>
<text
               id="text338"
               style="font-variant:normal;font-weight:normal;font-size:7px;font-family:Roboto;-inkscape-font-specification:Roboto;writing-mode:lr-tb;fill:#000000;fill-opacity:1;fill-rule:nonzero;stroke:none"
               transform="scale(1,-1)"
               x="127.76"
               y="-30.960001"><tspan
                 id="tspan340"
                 y="-30.960001"
                 x="127.76">9</tspan></text>
<text
               id="text342"
               style="font-variant:normal;font-weight:normal;font-size:7px;font-family:Roboto;-inkscape-font-specification:Roboto;writing-mode:lr-tb;fill:#000000;fill-opacity:1;fill-rule:nonzero;stroke:none"
               transform="scale(1,-1)"
               x="152.28"
               y="-30.960001"><tspan
                 id="tspan344"
                 sodipodi:role="line"
                 y="-30.960001"
                 x="152.28">12</tspan></text>
<text
               id="text346"
               style="font-variant:normal;font-weight:normal;font-size:7px;font-family:Roboto;-inkscape-font-specification:Roboto;writing-mode:lr-tb;fill:#000000;fill-opacity:1;fill-rule:nonzero;stroke:none"
               transform="scale(1,-1)"
               x="178.53999"
               y="-30.960001"><tspan
                 id="tspan348"
                 sodipodi:role="line"
                 y="-30.960001"
                 x="178.53999">15</tspan></text>
<text
               id="text350"
               style="font-variant:normal;font-weight:normal;font-size:7px;font-family:Roboto;-inkscape-font-specification:Roboto;writing-mode:lr-tb;fill:#000000;fill-opacity:1;fill-rule:nonzero;stroke:none"
               transform="scale(1,-1)"
               x="204.8"
               y="-30.960001"><tspan
                 id="tspan352"
                 sodipodi:role="line"
                 y="-30.960001"
                 x="204.8">18</tspan></text>
<text
               id="text354"
               style="font-variant:normal;font-weight:normal;font-size:7px;font-family:Roboto;-inkscape-font-specification:Roboto;writing-mode:lr-tb;fill:#000000;fill-opacity:1;fill-rule:nonzero;stroke:none"
               transform="scale(1,-1)"
               x="231.06"
               y="-30.960001"><tspan
                 id="tspan356"
                 sodipodi:role="line"
                 y="-30.960001"
                 x="231.06">21</tspan></text>
<text
               id="text358"
               style="font-variant:normal;font-weight:normal;font-size:7px;font-family:Roboto;-inkscape-font-specification:Roboto;writing-mode:lr-tb;fill:#000000;fill-opacity:1;fill-rule:nonzero;stroke:none"
               transform="scale(1,-1)"
               x="257.32999"
               y="-30.960001"><tspan
                 id="tspan360"
                 sodipodi:role="line"
                 y="-30.960001"
                 x="257.32999">24</tspan></text>
</g><g
             id="g362" /><g
             id="g364" /><g
             id="g366" /><g
             id="g368" /><g
             id="g370" /><g
             id="g420" /><g
             id="g422" /><g
             id="g440" /><g
             id="g442" /><g
             id="g444" /><g
             id="g446" /><g
             id="g448" /></g></g></g><text
       xml:space="preserve"
       style="font-style:normal;font-weight:normal;font-size:32px;line-height:125%;font-family:sans-serif;letter-spacing:0px;word-spacing:0px;fill:#000000;fill-opacity:1;stroke:none;stroke-width:1px;stroke-linecap:butt;stroke-linejoin:miter;stroke-opacity:1"
       x="107.22031"
       y="-7.9948277"
       id="text5022-9"
       sodipodi:linespacing="125%"
       transform="scale(1,-1)"><tspan
         sodipodi:role="line"
         id="tspan5024-1"
         x="107.22031"
         y="-7.9948277"
         style="font-style:normal;font-variant:normal;font-weight:normal;font-stretch:normal;font-size:8px;line-height:125%;font-family:Roboto;-inkscape-font-specification:'Roboto, Normal';text-align:start;writing-mode:lr-tb;text-anchor:start">Months of age</tspan></text>
<text
       xml:space="preserve"
       style="font-style:normal;font-weight:normal;font-size:9px;line-height:125%;font-family:sans-serif;letter-spacing:0px;word-spacing:0px;fill:#000000;fill-opacity:1;stroke:none;stroke-width:1px;stroke-linecap:butt;stroke-linejoin:miter;stroke-opacity:1"
       x="12.742335"
       y="-208.09688"
       id="text4274"
       sodipodi:linespacing="125%"
       transform="scale(1,-1)"><tspan
         sodipodi:role="line"
         id="tspan4276"
         x="12.742335"
         y="-208.09688"
         style="font-style:normal;font-variant:normal;font-weight:normal;font-stretch:normal;font-size:8px;font-family:'Roboto Condensed';-inkscape-font-specification:'Roboto Condensed, ';text-align:end;text-anchor:end">Probability to die</tspan><tspan
         sodipodi:role="line"
         x="12.742335"
         y="-198.09688"
         id="tspan4280"
         style="font-style:normal;font-variant:normal;font-weight:normal;font-stretch:normal;font-size:8px;font-family:'Roboto Condensed';-inkscape-font-specification:'Roboto Condensed, ';text-align:end;text-anchor:end">within 30 days</tspan></text>
<text
       xml:space="preserve"
       style="font-style:normal;font-weight:normal;font-size:32px;line-height:125%;font-family:sans-serif;letter-spacing:0px;word-spacing:0px;fill:#000000;fill-opacity:1;stroke:none;stroke-width:1px;stroke-linecap:butt;stroke-linejoin:miter;stroke-opacity:1"
       x="-0.56817758"
       y="-188.80696"
       id="text5022-3"
       sodipodi:linespacing="125%"
       transform="scale(1,-1)"><tspan
         sodipodi:role="line"
         id="tspan5024-6"
         x="-0.56817758"
         y="-188.80696"
         style="font-size:9px"><tspan
   style="font-style:normal;font-variant:normal;font-weight:normal;font-stretch:normal;font-size:4.67999983px;font-family:Roboto;-inkscape-font-specification:Roboto;baseline-shift:sub"
   id="tspan4268">1</tspan>q<tspan
   style="font-style:italic;font-size:4.67999983px;baseline-shift:sub"
   id="tspan7692-7">x</tspan></tspan></text>
</g></svg>