<?xml version="1.0" encoding="UTF-8" standalone="no"?>
<!-- Created with Inkscape (http://www.inkscape.org/) -->

<svg
   xmlns:dc="http://purl.org/dc/elements/1.1/"
   xmlns:cc="http://creativecommons.org/ns#"
   xmlns:rdf="http://www.w3.org/1999/02/22-rdf-syntax-ns#"
   xmlns:svg="http://www.w3.org/2000/svg"
   xmlns="http://www.w3.org/2000/svg"
   xmlns:sodipodi="http://sodipodi.sourceforge.net/DTD/sodipodi-0.dtd"
   xmlns:inkscape="http://www.inkscape.org/namespaces/inkscape"
   id="svg5456"
   version="1.1"
   inkscape:version="0.91 r13725"
   xml:space="preserve"
   width="645.47015"
   height="449.29242"
   viewBox="0 0 645.47016 449.29242"
   sodipodi:docname="plot_ilt_dob0510_apgar5_2.svg"
   inkscape:export-filename="/home/jon/lucile/share/Dropbox/sci/2016-09-imort_selection/doc/2017-05-29-presentation_popfest/assets/plot_ilt_dob0510_apgar5_3.png"
   inkscape:export-xdpi="278.87"
   inkscape:export-ydpi="278.87"><sodipodi:namedview
     pagecolor="#ffffff"
     bordercolor="#666666"
     borderopacity="1"
     objecttolerance="10"
     gridtolerance="10"
     guidetolerance="10"
     inkscape:pageopacity="0"
     inkscape:pageshadow="2"
     inkscape:window-width="1920"
     inkscape:window-height="1056"
     id="namedview5458"
     showgrid="false"
     inkscape:zoom="1.9318403"
     inkscape:cx="267.71958"
     inkscape:cy="167.66118"
     inkscape:window-x="0"
     inkscape:window-y="24"
     inkscape:window-maximized="1"
     inkscape:current-layer="g5464"
     fit-margin-top="0"
     fit-margin-left="0"
     fit-margin-right="0"
     fit-margin-bottom="0" /><metadata
     id="metadata5462"><rdf:RDF><cc:Work
         rdf:about=""><dc:format>image/svg+xml</dc:format><dc:type
           rdf:resource="http://purl.org/dc/dcmitype/StillImage" /><dc:title /></cc:Work></rdf:RDF></metadata><defs
     id="defs5460"><clipPath
       id="clipPath5490"
       clipPathUnits="userSpaceOnUse"><path
         inkscape:connector-curvature="0"
         id="path5492"
         d="m 7.41,0 489.17,0 0,360 -489.17,0 0,-360 z" /></clipPath><clipPath
       id="clipPath5500"
       clipPathUnits="userSpaceOnUse"><path
         inkscape:connector-curvature="0"
         id="path5502"
         d="m 58.79,51.9 432.32,0 0,302.62 -432.32,0 0,-302.62 z" /></clipPath></defs><g
     transform="matrix(1.25,0,0,-1.25,-7.7316093,476.03313)"
     inkscape:label="plot_ilt_dob0510_apgar5"
     inkscape:groupmode="layer"
     id="g5464"><g
       id="g5466" /><g
       id="g5468" /><g
       id="g5470" /><g
       id="g5472" /><g
       id="g5474" /><g
       id="g5476" /><g
       id="g5478" /><g
       id="g5480" /><g
       id="g5482" /><g
       id="g5484" /><g
       id="g5486"><g
         clip-path="url(#clipPath5490)"
         id="g5488" /></g><g
       id="g5494" /><g
       id="g5496"><g
         clip-path="url(#clipPath5500)"
         id="g5498"><path
           inkscape:connector-curvature="0"
           id="path5504"
           style="fill:none;stroke:#646464;stroke-width:0.4;stroke-linecap:butt;stroke-linejoin:round;stroke-miterlimit:10;stroke-dasharray:none;stroke-opacity:1"
           d="m 58.79,80.99 432.32,0" /><path
           inkscape:connector-curvature="0"
           id="path5506"
           style="fill:none;stroke:#646464;stroke-width:0.4;stroke-linecap:butt;stroke-linejoin:round;stroke-miterlimit:10;stroke-dasharray:none;stroke-opacity:1"
           d="m 58.79,122.91 432.32,0" /><path
           inkscape:connector-curvature="0"
           id="path5508"
           style="fill:none;stroke:#646464;stroke-width:0.4;stroke-linecap:butt;stroke-linejoin:round;stroke-miterlimit:10;stroke-dasharray:none;stroke-opacity:1"
           d="m 58.79,164.84 432.32,0" /><path
           inkscape:connector-curvature="0"
           id="path5510"
           style="fill:none;stroke:#646464;stroke-width:0.4;stroke-linecap:butt;stroke-linejoin:round;stroke-miterlimit:10;stroke-dasharray:none;stroke-opacity:1"
           d="m 58.79,206.76 432.32,0" /><path
           inkscape:connector-curvature="0"
           id="path5512"
           style="fill:none;stroke:#646464;stroke-width:0.4;stroke-linecap:butt;stroke-linejoin:round;stroke-miterlimit:10;stroke-dasharray:none;stroke-opacity:1"
           d="m 58.79,248.69 432.32,0" /><path
           inkscape:connector-curvature="0"
           id="path5514"
           style="fill:none;stroke:#646464;stroke-width:0.4;stroke-linecap:butt;stroke-linejoin:round;stroke-miterlimit:10;stroke-dasharray:none;stroke-opacity:1"
           d="m 58.79,290.61 432.32,0" /><path
           inkscape:connector-curvature="0"
           id="path5516"
           style="fill:none;stroke:#646464;stroke-width:0.4;stroke-linecap:butt;stroke-linejoin:round;stroke-miterlimit:10;stroke-dasharray:none;stroke-opacity:1"
           d="m 58.79,332.54 432.32,0" /><path
           inkscape:connector-curvature="0"
           id="path5518"
           style="fill:none;stroke:#646464;stroke-width:0.4;stroke-linecap:butt;stroke-linejoin:round;stroke-miterlimit:10;stroke-dasharray:none;stroke-opacity:1"
           d="m 78.44,51.9 0,302.62" /><path
           inkscape:connector-curvature="0"
           id="path5520"
           style="fill:none;stroke:#646464;stroke-width:0.4;stroke-linecap:butt;stroke-linejoin:round;stroke-miterlimit:10;stroke-dasharray:none;stroke-opacity:1"
           d="m 108.46,51.9 0,302.62" /><path
           inkscape:connector-curvature="0"
           id="path5522"
           style="fill:none;stroke:#646464;stroke-width:0.4;stroke-linecap:butt;stroke-linejoin:round;stroke-miterlimit:10;stroke-dasharray:none;stroke-opacity:1"
           d="m 217.84,51.9 0,302.62" /><path
           inkscape:connector-curvature="0"
           id="path5524"
           style="fill:none;stroke:#646464;stroke-width:0.4;stroke-linecap:butt;stroke-linejoin:round;stroke-miterlimit:10;stroke-dasharray:none;stroke-opacity:1"
           d="m 300.6,51.9 0,302.62" /><path
           inkscape:connector-curvature="0"
           id="path5526"
           style="fill:none;stroke:#646464;stroke-width:0.4;stroke-linecap:butt;stroke-linejoin:round;stroke-miterlimit:10;stroke-dasharray:none;stroke-opacity:1"
           d="m 363.42,51.9 0,302.62" /><path
           inkscape:connector-curvature="0"
           id="path5528"
           style="fill:none;stroke:#646464;stroke-width:0.4;stroke-linecap:butt;stroke-linejoin:round;stroke-miterlimit:10;stroke-dasharray:none;stroke-opacity:1"
           d="m 393.41,51.9 0,302.62" /><path
           inkscape:connector-curvature="0"
           id="path5530"
           style="fill:none;stroke:#646464;stroke-width:0.4;stroke-linecap:butt;stroke-linejoin:round;stroke-miterlimit:10;stroke-dasharray:none;stroke-opacity:1"
           d="m 410.96,51.9 0,302.62" /><path
           inkscape:connector-curvature="0"
           id="path5532"
           style="fill:none;stroke:#646464;stroke-width:0.4;stroke-linecap:butt;stroke-linejoin:round;stroke-miterlimit:10;stroke-dasharray:none;stroke-opacity:1"
           d="m 423.41,51.9 0,302.62" /><path
           inkscape:connector-curvature="0"
           id="path5534"
           style="fill:none;stroke:#646464;stroke-width:0.4;stroke-linecap:butt;stroke-linejoin:round;stroke-miterlimit:10;stroke-dasharray:none;stroke-opacity:1"
           d="m 433.07,51.9 0,302.62" /><path
           inkscape:connector-curvature="0"
           id="path5536"
           style="fill:none;stroke:#646464;stroke-width:0.4;stroke-linecap:butt;stroke-linejoin:round;stroke-miterlimit:10;stroke-dasharray:none;stroke-opacity:1"
           d="m 440.97,51.9 0,302.62" /><path
           inkscape:connector-curvature="0"
           id="path5538"
           style="fill:none;stroke:#646464;stroke-width:0.4;stroke-linecap:butt;stroke-linejoin:round;stroke-miterlimit:10;stroke-dasharray:none;stroke-opacity:1"
           d="m 447.64,51.9 0,302.62" /><path
           inkscape:connector-curvature="0"
           id="path5540"
           style="fill:none;stroke:#646464;stroke-width:0.4;stroke-linecap:butt;stroke-linejoin:round;stroke-miterlimit:10;stroke-dasharray:none;stroke-opacity:1"
           d="m 453.42,51.9 0,302.62" /><path
           inkscape:connector-curvature="0"
           id="path5542"
           style="fill:none;stroke:#646464;stroke-width:0.4;stroke-linecap:butt;stroke-linejoin:round;stroke-miterlimit:10;stroke-dasharray:none;stroke-opacity:1"
           d="m 458.52,51.9 0,302.62" /><path
           inkscape:connector-curvature="0"
           id="path5544"
           style="fill:none;stroke:#646464;stroke-width:0.4;stroke-linecap:butt;stroke-linejoin:round;stroke-miterlimit:10;stroke-dasharray:none;stroke-opacity:1"
           d="m 463.08,51.9 0,302.62" /><path
           inkscape:connector-curvature="0"
           id="path5546"
           style="fill:none;stroke:#646464;stroke-width:0.4;stroke-linecap:butt;stroke-linejoin:round;stroke-miterlimit:10;stroke-dasharray:none;stroke-opacity:1"
           d="m 467.21,51.9 0,302.62" /><path
           inkscape:connector-curvature="0"
           id="path5548"
           style="fill:none;stroke:#646464;stroke-width:0.4;stroke-linecap:butt;stroke-linejoin:round;stroke-miterlimit:10;stroke-dasharray:none;stroke-opacity:1"
           d="m 470.98,51.9 0,302.62" /><path
           inkscape:connector-curvature="0"
           id="path5550"
           style="fill:none;stroke:#132b43;stroke-width:1.27999997;stroke-linecap:butt;stroke-linejoin:round;stroke-miterlimit:1;stroke-dasharray:none;stroke-opacity:1"
           d="m 78.44,333.67 4.96,-2.41 4.95,-2.41 4.96,-2.41 4.95,-2.41 4.96,-2.41 4.95,-2.41 4.96,-2.41 4.95,-2.42 4.96,-2.42 4.95,-2.42 4.96,-2.43 4.95,-2.43 4.95,-2.45 4.96,-2.45 4.95,-2.46 4.96,-2.47 4.95,-2.48 4.96,-2.49 4.95,-2.5 4.96,-2.51 4.95,-2.53 4.96,-2.54 4.95,-2.56 4.96,-2.58 4.95,-2.59 4.96,-2.6 4.95,-2.63 4.96,-2.64 4.95,-2.67 4.96,-2.69 4.95,-2.7 4.96,-2.73 4.95,-2.76 4.96,-2.77 4.95,-2.8 4.96,-2.83 4.95,-2.86 4.96,-2.88 4.95,-2.9 4.96,-2.94 4.95,-2.97 4.96,-3 4.95,-3.03 4.96,-3.06 4.95,-3.09 4.96,-3.13 4.95,-3.16 4.96,-3.19 4.95,-3.24 4.96,-3.27 4.95,-3.3 4.96,-3.36 4.95,-3.43 4.96,-3.44 4.95,-3.39 4.96,-3.26 4.95,-3.06 4.96,-2.79 4.95,-2.5 4.96,-2.22 4.95,-1.95 4.96,-1.66 4.95,-1.32 4.96,-0.88 4.95,-0.62 4.96,-0.53 4.95,-0.21 4.96,0.13 4.95,0.2 4.96,0.02 4.95,-0.22 4.96,-0.25 4.95,-0.32 4.96,-0.36 4.95,-0.41 4.96,-0.46 4.95,-0.52 4.96,-0.56 4.95,-0.62" /><path
           inkscape:connector-curvature="0"
           id="path5552"
           style="fill:none;stroke:#193753;stroke-width:1.27999997;stroke-linecap:butt;stroke-linejoin:round;stroke-miterlimit:1;stroke-dasharray:none;stroke-opacity:1"
           d="m 78.44,340.76 4.97,-2.88 4.98,-2.87 4.97,-2.85 4.97,-2.82 4.98,-2.8 4.97,-2.79 4.97,-2.76 4.98,-2.75 4.97,-2.74 4.97,-2.71 4.98,-2.71 4.97,-2.68 4.97,-2.68 4.98,-2.66 4.97,-2.66 4.97,-2.64 4.98,-2.63 4.97,-2.63 4.97,-2.62 4.98,-2.61 4.97,-2.6 4.97,-2.6 4.98,-2.6 4.97,-2.59 4.97,-2.6 4.98,-2.59 4.97,-2.59 4.98,-2.59 4.97,-2.59 4.97,-2.6 4.98,-2.6 4.97,-2.6 4.97,-2.61 4.98,-2.62 4.97,-2.62 4.97,-2.63 4.98,-2.64 4.97,-2.65 4.97,-2.66 4.98,-2.67 4.97,-2.68 4.97,-2.7 4.98,-2.71 4.97,-2.73 4.97,-2.74 4.98,-2.76 4.97,-2.78 4.97,-2.79 4.98,-2.82 4.97,-2.84 4.97,-2.86 4.98,-2.88 4.97,-2.9 4.97,-2.93 4.98,-2.95 4.97,-2.98 4.97,-3.01 4.98,-3.1 4.97,-3.34 4.97,-3.48 4.98,-3.54 4.97,-3.48 4.97,-3.34 4.98,-3.13 4.97,-3.03 4.97,-2.8 4.98,-2.43 4.97,-1.77 4.97,-1.09 4.98,-1 4.97,-0.86 4.97,-0.79 4.98,-0.91 4.97,-0.93 4.97,-1.01 4.98,-1.05 4.97,-1.07 4.97,-1.11 4.98,-1.14" /><path
           inkscape:connector-curvature="0"
           id="path5554"
           style="fill:none;stroke:#1f4364;stroke-width:1.27999997;stroke-linecap:butt;stroke-linejoin:round;stroke-miterlimit:1;stroke-dasharray:none;stroke-opacity:1"
           d="m 78.44,320.44 4.97,-2.38 4.96,-2.36 4.97,-2.35 4.96,-2.34 4.97,-2.32 4.97,-2.31 4.96,-2.3 4.97,-2.29 4.96,-2.28 4.97,-2.28 4.96,-2.26 4.97,-2.27 4.97,-2.25 4.96,-2.25 4.97,-2.25 4.96,-2.25 4.97,-2.25 4.96,-2.24 4.97,-2.25 4.97,-2.25 4.96,-2.25 4.97,-2.25 4.96,-2.26 4.97,-2.27 4.96,-2.27 4.97,-2.28 4.97,-2.28 4.96,-2.3 4.97,-2.3 4.96,-2.32 4.97,-2.33 4.97,-2.34 4.96,-2.35 4.97,-2.37 4.96,-2.39 4.97,-2.4 4.96,-2.42 4.97,-2.44 4.97,-2.46 4.96,-2.48 4.97,-2.5 4.96,-2.52 4.97,-2.55 4.96,-2.57 4.97,-2.6 4.97,-2.62 4.96,-2.65 4.97,-2.67 4.96,-2.71 4.97,-2.73 4.97,-2.77 4.96,-2.8 4.97,-2.83 4.96,-2.87 4.97,-2.9 4.96,-2.93 4.97,-2.98 4.97,-3.12 4.96,-3.27 4.97,-3.33 4.96,-3.3 4.97,-3.2 4.96,-3 4.97,-2.78 4.97,-2.55 4.96,-2.33 4.97,-2.07 4.96,-1.52 4.97,-1.23 4.96,-1.44 4.97,-1.63 4.97,-1.57 4.96,-1.49 4.97,-1.4 4.96,-1.2 4.97,-1.09 4.97,-0.94 4.96,-0.76 4.97,-0.59" /><path
           inkscape:connector-curvature="0"
           id="path5568"
           style="fill:none;stroke:#4fa2e3;stroke-width:1.27999997;stroke-linecap:butt;stroke-linejoin:round;stroke-miterlimit:1;stroke-dasharray:none;stroke-opacity:1"
           d="m 78.44,155.12 4.98,-0.96 4.97,-0.94 4.98,-0.92 4.97,-0.9 4.98,-0.89 4.97,-0.87 4.97,-0.86 4.98,-0.84 4.97,-0.83 4.98,-0.81 4.97,-0.81 4.98,-0.79 4.97,-0.77 4.98,-0.77 4.97,-0.75 4.98,-0.74 4.97,-0.74 4.98,-0.72 4.97,-0.71 4.98,-0.71 4.97,-0.69 4.98,-0.69 4.97,-0.68 4.98,-0.67 4.97,-0.67 4.98,-0.66 4.97,-0.65 4.98,-0.65 4.97,-0.65 4.98,-0.64 4.97,-0.63 4.98,-0.64 4.97,-0.63 4.98,-0.63 4.97,-0.62 4.98,-0.63 4.97,-0.62 4.98,-0.62 4.97,-0.63 4.98,-0.62 4.97,-0.63 4.98,-0.62 4.97,-0.63 4.98,-0.63 4.97,-0.64 4.98,-0.63 4.97,-0.64 4.97,-0.65 4.98,-0.65 4.97,-0.65 4.98,-0.66 4.97,-0.67 4.98,-0.67 4.97,-0.68 4.98,-0.69 4.97,-0.7 4.98,-0.7 4.97,-0.72 4.98,-0.72 4.97,-0.73 4.98,-0.74 4.97,-0.76 4.98,-0.82 4.97,-0.96 4.98,-1.17 4.97,-1.45 4.98,-1.8 4.97,-2.25 4.98,-2.65 4.97,-2.95 4.98,-3.22 4.97,-3.61 4.98,-3.7 4.97,-3.76 4.98,-3.68 4.97,-3.52 4.98,-3.41 4.97,-3.29 4.98,-3.17" /><path
           inkscape:connector-curvature="0"
           id="path5570"
           style="fill:none;stroke:#56b1f7;stroke-width:1.27999997;stroke-linecap:butt;stroke-linejoin:round;stroke-miterlimit:1;stroke-dasharray:none;stroke-opacity:1"
           d="m 78.44,157.14 4.97,-1.74 4.98,-1.7 4.97,-1.65 4.97,-1.61 4.98,-1.56 4.97,-1.51 4.97,-1.47 4.98,-1.43 4.97,-1.38 4.97,-1.35 4.98,-1.3 4.97,-1.26 4.97,-1.23 4.98,-1.18 4.97,-1.15 4.97,-1.11 4.98,-1.08 4.97,-1.04 4.97,-1.01 4.98,-0.97 4.97,-0.94 4.97,-0.91 4.98,-0.88 4.97,-0.85 4.97,-0.82 4.98,-0.79 4.97,-0.76 4.98,-0.74 4.97,-0.71 4.97,-0.68 4.98,-0.66 4.97,-0.64 4.97,-0.61 4.98,-0.59 4.97,-0.57 4.97,-0.55 4.98,-0.53 4.97,-0.52 4.97,-0.49 4.98,-0.48 4.97,-0.46 4.97,-0.44 4.98,-0.43 4.97,-0.42 4.97,-0.4 4.98,-0.39 4.97,-0.38 4.97,-0.37 4.98,-0.36 4.97,-0.35 4.97,-0.35 4.98,-0.33 4.97,-0.33 4.97,-0.32 4.98,-0.32 4.97,-0.31 4.97,-0.31 4.98,-0.31 4.97,-0.3 4.97,-0.31 4.98,-0.35 4.97,-0.46 4.97,-0.63 4.98,-0.86 4.97,-1.16 4.97,-1.51 4.98,-2.04 4.97,-2.44 4.97,-2.66 4.98,-2.72 4.97,-2.9 4.97,-3.01 4.98,-3.69 4.97,-3.24 4.97,-2.45 4.98,-1.86 4.97,-1.3 4.97,-0.66 4.98,0" /></g></g><g
       id="g5574" /><g
       id="g5576" /><g
       id="g5578" /><g
       id="g5580" /><g
       id="g5582" /><g
       id="g5584" /><g
       id="g5586" /><g
       id="g5588" /><g
       id="g5590" /><g
       id="g5592" /><g
       id="g5594" /><g
       id="g5596" /><g
       id="g5598" /><g
       id="g5600" /><g
       id="g5602" /><g
       id="g5604"><text
         id="text5606"
         style="font-variant:normal;font-weight:normal;font-size:11px;font-family:Roboto;-inkscape-font-specification:Roboto;writing-mode:lr-tb;fill:#000000;fill-opacity:1;fill-rule:nonzero;stroke:none"
         transform="matrix(1,0,0,-1,36.34,77.76)"><tspan
           id="tspan5608"
           sodipodi:role="line"
           y="0"
           x="0">0.01</tspan></text>
<text
         id="text5610"
         style="font-variant:normal;font-weight:normal;font-size:11px;font-family:Roboto;-inkscape-font-specification:Roboto;writing-mode:lr-tb;fill:#000000;fill-opacity:1;fill-rule:nonzero;stroke:none"
         transform="matrix(1,0,0,-1,41.35,119.68)"><tspan
           id="tspan5612"
           sodipodi:role="line"
           y="0"
           x="0">0.1</tspan></text>
<text
         id="text5614"
         style="font-variant:normal;font-weight:normal;font-size:11px;font-family:Roboto;-inkscape-font-specification:Roboto;writing-mode:lr-tb;fill:#000000;fill-opacity:1;fill-rule:nonzero;stroke:none"
         transform="matrix(1,0,0,-1,48.85,161.61)"><tspan
           style="font-size:11px;fill:#000000"
           id="tspan5616"
           y="0"
           x="0">1</tspan></text>
<text
         id="text5618"
         style="font-variant:normal;font-weight:normal;font-size:11px;font-family:Roboto;-inkscape-font-specification:Roboto;writing-mode:lr-tb;fill:#000000;fill-opacity:1;fill-rule:nonzero;stroke:none"
         transform="matrix(1,0,0,-1,43.85,203.53)"><tspan
           id="tspan5620"
           sodipodi:role="line"
           y="0"
           x="0">10</tspan></text>
<text
         id="text5622"
         style="font-variant:normal;font-weight:normal;font-size:11px;font-family:Roboto;-inkscape-font-specification:Roboto;writing-mode:lr-tb;fill:#000000;fill-opacity:1;fill-rule:nonzero;stroke:none"
         transform="matrix(1,0,0,-1,38.85,245.46)"><tspan
           id="tspan5624"
           sodipodi:role="line"
           y="0"
           x="0">100</tspan></text>
<text
         id="text5626"
         style="font-variant:normal;font-weight:normal;font-size:11px;font-family:Roboto;-inkscape-font-specification:Roboto;text-align:end;writing-mode:lr-tb;text-anchor:end;fill:#000000;fill-opacity:1;fill-rule:nonzero;stroke:none"
         transform="matrix(1,0,0,-1,33.84,287.38)"
         x="23.203125"
         y="0"><tspan
           id="tspan5628"
           sodipodi:role="line"
           y="0"
           x="23.203125">1,000</tspan></text>
<text
         id="text5630"
         style="font-variant:normal;font-weight:normal;font-size:11px;font-family:Roboto;-inkscape-font-specification:Roboto;text-align:end;writing-mode:lr-tb;text-anchor:end;fill:#000000;fill-opacity:1;fill-rule:nonzero;stroke:none"
         transform="matrix(1,0,0,-1,28.84,329.31)"
         x="29.390625"
         y="0"><tspan
           id="tspan5632"
           sodipodi:role="line"
           y="0"
           x="29.390625">10,000</tspan></text>
</g><g
       id="g5634" /><g
       id="g5636" /><g
       id="g5638" /><g
       id="g5640" /><g
       id="g5642" /><g
       id="g5644" /><g
       id="g5646" /><g
       id="g5648" /><g
       id="g5650" /><g
       id="g5652" /><g
       id="g5654" /><g
       id="g5656" /><g
       id="g5658" /><g
       id="g5660"><text
         id="text5662"
         style="font-variant:normal;font-weight:normal;font-size:11px;font-family:Roboto;-inkscape-font-specification:Roboto;writing-mode:lr-tb;fill:#000000;fill-opacity:1;fill-rule:nonzero;stroke:none"
         transform="matrix(1,0,0,-1,70.57,40.5)"><tspan
           id="tspan5664"
           sodipodi:role="line"
           y="0"
           x="0">Day</tspan></text>
<text
         id="text5666"
         style="font-variant:normal;font-weight:normal;font-size:11px;font-family:Roboto;-inkscape-font-specification:Roboto;writing-mode:lr-tb;fill:#000000;fill-opacity:1;fill-rule:nonzero;stroke:none"
         transform="matrix(1,0,0,-1,74.69,31)"><tspan
           id="tspan5668"
           sodipodi:role="line"
           y="0"
           x="0">of</tspan></text>
<text
         id="text5670"
         style="font-variant:normal;font-weight:normal;font-size:11px;font-family:Roboto;-inkscape-font-specification:Roboto;writing-mode:lr-tb;fill:#000000;fill-opacity:1;fill-rule:nonzero;stroke:none"
         transform="matrix(1,0,0,-1,69.51,21.5)"><tspan
           id="tspan5672"
           sodipodi:role="line"
           y="0"
           x="0">birth</tspan></text>
<text
         id="text5674"
         style="font-variant:normal;font-weight:normal;font-size:11px;font-family:Roboto;-inkscape-font-specification:Roboto;writing-mode:lr-tb;fill:#000000;fill-opacity:1;fill-rule:nonzero;stroke:none"
         transform="matrix(1,0,0,-1,94.95,40.5)"><tspan
           id="tspan5676"
           sodipodi:role="line"
           y="0"
           x="0">1 Hour</tspan></text>
<text
         id="text5678"
         style="font-variant:normal;font-weight:normal;font-size:11px;font-family:Roboto;-inkscape-font-specification:Roboto;writing-mode:lr-tb;fill:#000000;fill-opacity:1;fill-rule:nonzero;stroke:none"
         transform="matrix(1,0,0,-1,206.22,40.5)"><tspan
           id="tspan5680"
           sodipodi:role="line"
           y="0"
           x="0">1 Day</tspan></text>
<text
         id="text5682"
         style="font-variant:normal;font-weight:normal;font-size:11px;font-family:Roboto;-inkscape-font-specification:Roboto;writing-mode:lr-tb;fill:#000000;fill-opacity:1;fill-rule:nonzero;stroke:none"
         transform="matrix(1,0,0,-1,285.48,40.5)"><tspan
           id="tspan5684"
           sodipodi:role="line"
           y="0"
           x="0">1 Week</tspan></text>
<text
         id="text5686"
         style="font-variant:normal;font-weight:normal;font-size:11px;font-family:Roboto;-inkscape-font-specification:Roboto;writing-mode:lr-tb;fill:#000000;fill-opacity:1;fill-rule:nonzero;stroke:none"
         transform="matrix(1,0,0,-1,347.16,40.5)"><tspan
           id="tspan5688"
           sodipodi:role="line"
           y="0"
           x="0">1 Month</tspan></text>
<text
         id="text5690"
         style="font-variant:normal;font-weight:normal;font-size:11px;font-family:Roboto;-inkscape-font-specification:Roboto;writing-mode:lr-tb;fill:#000000;fill-opacity:1;fill-rule:nonzero;stroke:none"
         transform="matrix(1,0,0,-1,458.35,40.5)"><tspan
           id="tspan5692"
           sodipodi:role="line"
           y="0"
           x="0">1 Year of age</tspan></text>
</g><g
       id="g5694" /><g
       id="g5696" /><g
       id="g5698" /><g
       id="g5700" /><g
       id="g5702" /><g
       id="g5710" /><g
       id="g5712" /><g
       id="g5718" /><g
       id="g5720" /><g
       id="g5722" /><g
       id="g5724" /><g
       id="g5726" /><g
       id="g5728" /><g
       id="g5730" /><g
       id="g5732" /><g
       id="g5734" /><g
       id="g5736" /><text
       id="text254"
       style="font-variant:normal;font-weight:normal;font-size:11px;line-height:100%;font-family:Roboto;-inkscape-font-specification:Roboto;text-align:end;writing-mode:lr-tb;text-anchor:end;fill:#000000;fill-opacity:1;fill-rule:nonzero;stroke:none"
       x="69.98851"
       y="-372.46371"
       sodipodi:linespacing="100%"
       transform="scale(1,-1)"><tspan
         id="tspan256"
         sodipodi:role="line"
         y="-372.46371"
         x="69.98851"
         style="font-style:normal;font-variant:normal;font-weight:normal;font-stretch:normal;font-family:'Roboto Condensed';-inkscape-font-specification:'Roboto Condensed, ';text-align:end;text-anchor:end">Daily hazard of</tspan><tspan
         sodipodi:role="line"
         y="-361.46371"
         x="69.98851"
         id="tspan4965"
         style="font-style:normal;font-variant:normal;font-weight:normal;font-stretch:normal;font-family:'Roboto Condensed';-inkscape-font-specification:'Roboto Condensed, ';text-align:end;text-anchor:end">death µ(x)</tspan><tspan
         sodipodi:role="line"
         y="-350.46371"
         x="69.98851"
         id="tspan6579"
         style="font-style:normal;font-variant:normal;font-weight:normal;font-stretch:normal;font-family:'Roboto Condensed';-inkscape-font-specification:'Roboto Condensed, ';text-align:end;text-anchor:end">×100,000</tspan></text>
<text
       xml:space="preserve"
       style="font-style:normal;font-variant:normal;font-weight:300;font-stretch:normal;font-size:11px;line-height:125%;font-family:'Roboto Condensed';-inkscape-font-specification:'Roboto Condensed, Light';text-align:center;letter-spacing:0px;word-spacing:0px;text-anchor:middle;fill:#56b1f7;fill-opacity:1;stroke:none;stroke-width:1px;stroke-linecap:butt;stroke-linejoin:miter;stroke-opacity:1"
       x="71.440994"
       y="-156.53"
       id="text4678"
       sodipodi:linespacing="125%"
       transform="scale(1,-1)"><tspan
         sodipodi:role="line"
         id="tspan4680"
         x="71.440994"
         y="-156.53">10</tspan></text>
<text
       xml:space="preserve"
       style="font-style:normal;font-variant:normal;font-weight:300;font-stretch:normal;font-size:11px;line-height:125%;font-family:'Roboto Condensed';-inkscape-font-specification:'Roboto Condensed, Light';text-align:center;letter-spacing:0px;word-spacing:0px;text-anchor:middle;fill:#4fa2e3;fill-opacity:1;stroke:none;stroke-width:1px;stroke-linecap:butt;stroke-linejoin:miter;stroke-opacity:1"
       x="73.717171"
       y="-149.60347"
       id="text4682"
       sodipodi:linespacing="125%"
       transform="scale(1,-1)"><tspan
         sodipodi:role="line"
         id="tspan4684"
         x="73.717171"
         y="-149.60347">9</tspan></text>
<text
       xml:space="preserve"
       style="font-style:normal;font-variant:normal;font-weight:300;font-stretch:normal;font-size:11px;line-height:125%;font-family:'Roboto Condensed';-inkscape-font-specification:'Roboto Condensed, Light';text-align:center;letter-spacing:0px;word-spacing:0px;text-anchor:middle;fill:#1f4364;fill-opacity:1;stroke:none;stroke-width:1px;stroke-linecap:butt;stroke-linejoin:miter;stroke-opacity:1"
       x="73.696419"
       y="-317.27554"
       id="text4710"
       sodipodi:linespacing="125%"
       transform="scale(1,-1)"><tspan
         sodipodi:role="line"
         id="tspan4712"
         x="73.696419"
         y="-317.27554">2</tspan></text>
<text
       xml:space="preserve"
       style="font-style:normal;font-variant:normal;font-weight:300;font-stretch:normal;font-size:11px;line-height:125%;font-family:'Roboto Condensed';-inkscape-font-specification:'Roboto Condensed, Light';text-align:center;letter-spacing:0px;word-spacing:0px;text-anchor:middle;fill:#132b43;fill-opacity:1;stroke:none;stroke-width:1px;stroke-linecap:butt;stroke-linejoin:miter;stroke-opacity:1"
       x="73.621811"
       y="-330.90906"
       id="text4714"
       sodipodi:linespacing="125%"
       transform="scale(1,-1)"><tspan
         sodipodi:role="line"
         id="tspan4716"
         x="73.621811"
         y="-330.90906">0</tspan></text>
<text
       xml:space="preserve"
       style="font-style:normal;font-variant:normal;font-weight:300;font-stretch:normal;font-size:11px;line-height:125%;font-family:'Roboto Condensed';-inkscape-font-specification:'Roboto Condensed, Light';text-align:end;letter-spacing:0px;word-spacing:0px;text-anchor:end;fill:#193753;fill-opacity:1;stroke:none;stroke-width:1px;stroke-linecap:butt;stroke-linejoin:miter;stroke-opacity:1"
       x="75.931633"
       y="-339.60562"
       id="text4718"
       sodipodi:linespacing="125%"
       transform="scale(1,-1)"><tspan
         sodipodi:role="line"
         id="tspan4720"
         x="75.931633"
         y="-339.60562">APGAR 1</tspan></text>
<text
       xml:space="preserve"
       style="font-style:normal;font-variant:normal;font-weight:300;font-stretch:normal;font-size:11px;line-height:125%;font-family:'Roboto Condensed';-inkscape-font-specification:'Roboto Condensed, Light';text-align:end;letter-spacing:0px;word-spacing:0px;text-anchor:end;fill:#132b43;fill-opacity:1;stroke:none;stroke-width:1px;stroke-linecap:butt;stroke-linejoin:miter;stroke-opacity:1"
       x="509.85425"
       y="-154.69849"
       id="text4718-3"
       sodipodi:linespacing="125%"
       transform="scale(1,-1)"><tspan
         sodipodi:role="line"
         id="tspan4720-6"
         x="509.85425"
         y="-154.69849">APGAR 0</tspan></text>
<text
       xml:space="preserve"
       style="font-style:normal;font-variant:normal;font-weight:300;font-stretch:normal;font-size:11px;line-height:125%;font-family:'Roboto Condensed';-inkscape-font-specification:'Roboto Condensed, Light';text-align:center;letter-spacing:0px;word-spacing:0px;text-anchor:middle;fill:#193753;fill-opacity:1;stroke:none;stroke-width:1px;stroke-linecap:butt;stroke-linejoin:miter;stroke-opacity:1"
       x="473.82901"
       y="-139.01576"
       id="text4714-7"
       sodipodi:linespacing="125%"
       transform="scale(1,-1)"><tspan
         sodipodi:role="line"
         id="tspan4716-5"
         x="473.82901"
         y="-139.01576">1</tspan></text>
<text
       xml:space="preserve"
       style="font-style:normal;font-variant:normal;font-weight:300;font-stretch:normal;font-size:11px;line-height:125%;font-family:'Roboto Condensed';-inkscape-font-specification:'Roboto Condensed, Light';text-align:center;letter-spacing:0px;word-spacing:0px;text-anchor:middle;fill:#1f4364;fill-opacity:1;stroke:none;stroke-width:1px;stroke-linecap:butt;stroke-linejoin:miter;stroke-opacity:1"
       x="476.77356"
       y="-135.18359"
       id="text4710-3"
       sodipodi:linespacing="125%"
       transform="scale(1,-1)"><tspan
         sodipodi:role="line"
         id="tspan4712-5"
         x="476.77356"
         y="-135.18359">2</tspan></text>
<text
       xml:space="preserve"
       style="font-style:normal;font-variant:normal;font-weight:300;font-stretch:normal;font-size:11px;line-height:125%;font-family:'Roboto Condensed';-inkscape-font-specification:'Roboto Condensed, Light';text-align:center;letter-spacing:0px;word-spacing:0px;text-anchor:middle;fill:#4fa2e3;fill-opacity:1;stroke:none;stroke-width:1px;stroke-linecap:butt;stroke-linejoin:miter;stroke-opacity:1"
       x="475.46869"
       y="-61.594955"
       id="text4682-2-1"
       sodipodi:linespacing="125%"
       transform="scale(1,-1)"><tspan
         sodipodi:role="line"
         id="tspan4684-6-8"
         x="475.46869"
         y="-61.594955">9</tspan></text>
<text
       xml:space="preserve"
       style="font-style:normal;font-variant:normal;font-weight:300;font-stretch:normal;font-size:11px;line-height:125%;font-family:'Roboto Condensed';-inkscape-font-specification:'Roboto Condensed, Light';text-align:center;letter-spacing:0px;word-spacing:0px;text-anchor:middle;fill:#56b1f7;fill-opacity:1;stroke:none;stroke-width:1px;stroke-linecap:butt;stroke-linejoin:miter;stroke-opacity:1"
       x="477.28461"
       y="-69.920975"
       id="text4678-7"
       sodipodi:linespacing="125%"
       transform="scale(1,-1)"><tspan
         sodipodi:role="line"
         id="tspan4680-9"
         x="477.28461"
         y="-69.920975">10</tspan></text>
</g></svg>