<?xml version="1.0" encoding="UTF-8" standalone="no"?>
<!-- Created with Inkscape (http://www.inkscape.org/) -->

<svg
   xmlns:dc="http://purl.org/dc/elements/1.1/"
   xmlns:cc="http://creativecommons.org/ns#"
   xmlns:rdf="http://www.w3.org/1999/02/22-rdf-syntax-ns#"
   xmlns:svg="http://www.w3.org/2000/svg"
   xmlns="http://www.w3.org/2000/svg"
   xmlns:sodipodi="http://sodipodi.sourceforge.net/DTD/sodipodi-0.dtd"
   xmlns:inkscape="http://www.inkscape.org/namespaces/inkscape"
   id="svg7044"
   version="1.1"
   inkscape:version="0.91 r13725"
   xml:space="preserve"
   width="587.77094"
   height="467.65637"
   viewBox="0 0 587.77093 467.65638"
   sodipodi:docname="daily_mortality.svg"
   inkscape:export-filename="/home/jon/lucile/share/Dropbox/sci/2016-09-imort_selection/doc/2017-05-29-presentation_popfest/assets/daily_mortality.png"
   inkscape:export-xdpi="317.73001"
   inkscape:export-ydpi="317.73001"><sodipodi:namedview
     pagecolor="#ffffff"
     bordercolor="#666666"
     borderopacity="1"
     objecttolerance="10"
     gridtolerance="10"
     guidetolerance="10"
     inkscape:pageopacity="0"
     inkscape:pageshadow="2"
     inkscape:window-width="1920"
     inkscape:window-height="1056"
     id="namedview7046"
     showgrid="false"
     inkscape:zoom="1.4833529"
     inkscape:cx="279.18915"
     inkscape:cy="261.03159"
     inkscape:window-x="0"
     inkscape:window-y="24"
     inkscape:window-maximized="1"
     inkscape:current-layer="g7052"
     fit-margin-top="0"
     fit-margin-left="0"
     fit-margin-right="0"
     fit-margin-bottom="0"
     inkscape:snap-text-baseline="true" /><metadata
     id="metadata7050"><rdf:RDF><cc:Work
         rdf:about=""><dc:format>image/svg+xml</dc:format><dc:type
           rdf:resource="http://purl.org/dc/dcmitype/StillImage" /><dc:title></dc:title></cc:Work></rdf:RDF></metadata><defs
     id="defs7048"><clipPath
       id="clipPath7078"
       clipPathUnits="userSpaceOnUse"><path
         inkscape:connector-curvature="0"
         id="path7080"
         d="m 29.69,0 444.61,0 0,360 -444.61,0 0,-360 z" /></clipPath><clipPath
       id="clipPath7092"
       clipPathUnits="userSpaceOnUse"><path
         inkscape:connector-curvature="0"
         id="path7094"
         d="m 64.97,31.34 403.36,0 0,322.68 -403.36,0 0,-322.68 z" /></clipPath></defs><g
     transform="matrix(1.25,0,0,-1.25,19.054031,483.85128)"
     inkscape:label="plot_ilt_doc2009_linear"
     inkscape:groupmode="layer"
     id="g7052"><g
       id="g7054" /><g
       id="g7056" /><g
       id="g7058" /><g
       id="g7060" /><g
       id="g7062" /><g
       id="g7064" /><g
       id="g7066" /><g
       id="g7068" /><g
       id="g7070" /><g
       id="g7072" /><g
       id="g7074"><g
         clip-path="url(#clipPath7078)"
         id="g7076" /></g><g
       id="g7082" /><g
       id="g7084" /><g
       id="g7086" /><g
       id="g7088"><g
         clip-path="url(#clipPath7092)"
         id="g7090"><path
           inkscape:connector-curvature="0"
           id="path7096"
           style="fill:none;stroke:#000000;stroke-width:1.0704;stroke-linecap:butt;stroke-linejoin:round;stroke-miterlimit:10;stroke-dasharray:1.0704, 4.2816;stroke-dashoffset:0;stroke-opacity:1"
           d="m 66.569999,45.98 385.023161,0"
           sodipodi:nodetypes="cc" /><path
           inkscape:connector-curvature="0"
           id="path7098"
           style="fill:none;stroke:#000000;stroke-width:1.0704;stroke-linecap:butt;stroke-linejoin:round;stroke-miterlimit:10;stroke-dasharray:1.0704, 4.2816;stroke-dashoffset:0;stroke-opacity:1"
           d="m 66.569999,75.31 385.023161,0"
           sodipodi:nodetypes="cc" /><path
           inkscape:connector-curvature="0"
           id="path7100"
           style="fill:none;stroke:#000000;stroke-width:1.0704;stroke-linecap:butt;stroke-linejoin:round;stroke-miterlimit:10;stroke-dasharray:1.0704, 4.2816;stroke-dashoffset:0;stroke-opacity:1"
           d="m 66.569999,339.35 385.023161,0"
           sodipodi:nodetypes="cc" /><path
           inkscape:connector-curvature="0"
           id="path7130"
           style="fill:none;stroke:#000000;stroke-width:1.0704;stroke-linecap:butt;stroke-linejoin:miter;stroke-miterlimit:1.5;stroke-dasharray:none;stroke-opacity:1"
           d="m 84.31,360 0,-257.86 1.01,0 0,-6.82 1.01,0 0,-17.55 1.01,0 0,-5.65 1,0 0,-4.48 1.01,0 0,-1.17 1.01,0 0,-2.13 1.01,0 0,-3.45 1,0 0,1.47 1.01,0 0,0.88 1.01,0 0,-1.76 1.01,0 0,-1.98 1,0 0,-1.91 1.01,0 0,-0.59 1.01,0 0,-0.22 1,0 0,2.13 1.01,0 0,-4.92 1.01,0 0,0.81 1.01,0 0,0.36 1,0 0,0 1.01,0 0,-0.66 1.01,0 0,-0.07 1.01,0 0,0.15 1,0 0,-0.74 1.01,0 0,-0.37 1.01,0 0,2.5 1.01,0 0,-3.23 1,0 0,1.18 1.01,0 0,-0.45 1.01,0 0,-0.07 1.01,0 0,-0.95 1,0 0,0.07 1.01,0 0,-0.66 1.01,0 0,-0.59 1,0 0,0.59 1.01,0 0,-0.3 1.01,0 0,0.08 1.01,0 0,-0.37 1,0 0,0 1.01,0 0,-0.66 1.01,0 0,0.07 1.01,0 0,1.33 1,0 0,-0.22 1.01,0 0,0.22 1.01,0 0,-0.52 1.01,0 0,-0.81 1,0 0,-0.14 1.01,0 0,-0.3 1.01,0 0,0.3 1.01,0 0,-0.15 1,0 0,0.44 1.01,0 0,0.51 1.01,0 0,-1.17 1.01,0 0,0.51 1,0 0,-0.59 1.01,0 0,0.45 1.01,0 0,0.88 1,0 0,-0.81 1.01,0 0,-1.1 1.01,0 0,0.95 1.01,0 0,-0.29 1,0 0,-0.59 1.01,0 0,0.37 1.01,0 0,-0.52 1.01,0 0,1.03 1,0 0,-1.25 1.01,0 0,0.37 1.01,0 0,0.29 1.01,0 0,0.67 1,0 0,-0.37 1.01,0 0,-0.88 1.01,0 0,0.88 1.01,0 0,-0.29 1,0 0,-1.03 1.01,0 0,0.8 1.01,0 0,-0.88 1,0 0,0.96 1.01,0 0,-0.37 1.01,0 0,-0.22 1.01,0 0,0.44 1,0 0,-0.73 1.01,0 0,0.73 1.01,0 0,-0.07 1.01,0 0,-0.3 1,0 0,0.3 1.01,0 0,0.59 1.01,0 0,-0.59 1.01,0 0,0.22 1,0 0,0 1.01,0 0,-1.18 1.01,0 0,0 1.01,0 0,1.33 1,0 0,-0.74 1.01,0 0,0.66 1.01,0 0,-0.44 1.01,0 0,-0.15 1,0 0,0.22 1.01,0 0,-1.17 1.01,0 0,1.1 1,0 0,0.3 1.01,0 0,-1.4 1.01,0 0,0.37 1.01,0 0,-0.45 1,0 0,1.25 1.01,0 0,0.52 1.01,0 0,-1.69 1.01,0 0,0.29 1,0 0,-0.22 1.01,0 0,0.22 1.01,0 0,-0.22 1.01,0 0,0 1,0 0,0.44 1.01,0 0,-0.51 1.01,0 0,-0.3 1.01,0 0,0.59 1,0 0,0.59 1.01,0 0,-1.03 1.01,0 0,-0.07 1,0 0,0.36 1.01,0 0,0.23 1.01,0 0,-1.18 1.01,0 0,0.95 1,0 0,0.08 1.01,0 0,-0.08 1.01,0 0,-0.22 1.01,0 0,-0.22 1,0 0,0.45 1.01,0 0,-0.74 1.01,0 0,0.15 1.01,0 0,0.07 1,0 0,0.44 1.01,0 0,-0.29 1.01,0 0,-0.15 1.01,0 0,0.88 1,0 0,-0.44 1.01,0 0,-0.59 1.01,0 0,0.22 1.01,0 0,0.67 1,0 0,-0.89 1.01,0 0,0 1.01,0 0,-0.51 1,0 0,0.66 1.01,0 0,-0.22 1.01,0 0,0.29 1.01,0 0,0.52 1,0 0,-1.03 1.01,0 0,0.15 1.01,0 0,-0.3 1.01,0 0,-0.15 1,0 0,0.37 1.01,0 0,-0.22 1.01,0 0,0.22 1.01,0 0,-0.51 1,0 0,0.59 1.01,0 0,0.73 1.01,0 0,-0.73 1.01,0 0,0.36 1,0 0,-0.51 1.01,0 0,0.37 1.01,0 0,0.14 1.01,0 0,-1.03 1,0 0,1.25 1.01,0 0,-0.81 1.01,0 0,0 1,0 0,0.45 1.01,0 0,-0.74 1.01,0 0,0.29 1.01,0 0,0.3 1,0 0,0.37 1.01,0 0,-0.52 1.01,0 0,0 1.01,0 0,0.08 1,0 0,-0.52 1.01,0 0,0.07 1.01,0 0,0.3 1.01,0 0,-0.74 1,0 0,0.3 1.01,0 0,0.51 1.01,0 0,-0.51 1.01,0 0,0.59 1,0 0,-0.3 1.01,0 0,-0.29 1.01,0 0,0.29 1,0 0,-0.22 1.01,0 0,-0.29 1.01,0 0,0.58 1.01,0 0,-0.36 1,0 0,0.51 1.01,0 0,0.22 1.01,0 0,-0.51 1.01,0 0,0.14 1,0 0,-0.22 1.01,0 0,0.22 1.01,0 0,-0.36 1.01,0 0,0.22 1,0 0,-0.15 1.01,0 0,-0.37 1.01,0 0,0.96 1.01,0 0,-0.81 1,0 0,0.15 1.01,0 0,-0.52 1.01,0 0,0.89 1.01,0 0,-0.3 1,0 0,0.15 1.01,0 0,-0.15 1.01,0 0,0 1,0 0,0.07 1.01,0 0,-0.44 1.01,0 0,0.37 1.01,0 0,-0.15 1,0 0,0.74 1.01,0 0,-0.74 1.01,0 0,-0.29 1.01,0 0,0.66 1,0 0,-0.44 1.01,0 0,0.07 1.01,0 0,-0.07 1.01,0 0,-0.07 1,0 0,-0.15 1.01,0 0,0.29 1.01,0 0,0.08 1.01,0 0,-0.22 1,0 0,0.29 1.01,0 0,-0.59 1.01,0 0,0.44 1,0 0,-0.07 1.01,0 0,0 1.01,0 0,0 1.01,0 0,-0.07 1,0 0,0.07 1.01,0 0,0.44 1.01,0 0,-0.44 1.01,0 0,-0.15 1,0 0,0.08 1.01,0 0,0.44 1.01,0 0,-0.37 1.01,0 0,-0.59 1,0 0,0.81 1.01,0 0,-0.44 1.01,0 0,0 1.01,0 0,0.29 1,0 0,0.08 1.01,0 0,-0.44 1.01,0 0,0.07 1.01,0 0,0 1,0 0,-0.07 1.01,0 0,-0.15 1.01,0 0,0.44 1,0 0,0.15 1.01,0 0,-0.22 1.01,0 0,0 1.01,0 0,-0.37 1,0 0,0.22 1.01,0 0,0.22 1.01,0 0,-0.07 1.01,0 0,-0.15 1,0 0,0.07 1.01,0 0,-0.07 1.01,0 0,-0.15 1.01,0 0,-0.22 1,0 0,0.15 1.01,0 0,-0.15 1.01,0 0,0.15 1.01,0 0,0.22 1,0 0,-0.22 1.01,0 0,0 1.01,0 0,-0.15 1,0 0,0.37 1.01,0 0,-0.15 1.01,0 0,0.22 1.01,0 0,0.08 1,0 0,-0.22 1.01,0 0,0.66 1.01,0 0,-0.74 1.01,0 0,0.08 1,0 0,-0.15 1.01,0 0,0.15 1.01,0 0,0.14 1.01,0 0,-0.29 1,0 0,0.07 1.01,0 0,-0.15 1.01,0 0,-0.14 1.01,0 0,0.59 1,0 0,-0.08 1.01,0 0,-0.07 1.01,0 0,-0.37 1.01,0 0,0.22 1,0 0,-0.07 1.01,0 0,0.07 1.01,0 0,0.08 1,0 0,-0.08 1.01,0 0,-0.15 1.01,0 0,-0.14 1.01,0 0,0.81 1,0 0,-0.15 1.01,0 0,-0.52 1.01,0 0,0.08 1.01,0 0,0.07 1,0 0,-0.15 1.01,0 0,0.08 1.01,0 0,0 1.01,0 0,0 1,0 0,-0.15 1.01,0 0,0.15 1.01,0 0,0.22 1.01,0 0,-0.22 1,0 0,0.22 1.01,0 0,-0.22 1.01,0 0,0.15 1.01,0 0,-0.08 1,0 0,0 1.01,0 0,0.08 1.01,0 0,0.07 1,0 0,-0.22 1.01,0 0,-0.08 1.01,0 0,-0.07 1.01,0 0,-0.07 1,0 0,0.22 1.01,0 0,0.15 1.01,0 0,0.14 1.01,0 0,-0.51 1,0 0,0.37 1.01,0 0,-0.08 1.01,0 0,-0.07 1.01,0 0,0.15 1,0 0,-0.08 1.01,0 0,0 1.01,0 0,-0.15 1.01,0 0,-0.14 1,0 0,0.07 1.01,0 0,0.15 1.01,0 0,0.37 1,0 0,-0.3 1.01,0 0,-0.22 1.01,0 0,0.37 1.01,0 0,-0.15 1,0 0,-0.07 1.01,0 0,0.07 1.01,0 0,0.08 1.01,0 0,-0.37 1,0 0,0.37 1.01,0 0,0.22 1.01,0 0,-0.45 1.01,0 0,-0.14 1,0 0,0.66 1.01,0 0,-0.37 1.01,0 0,-0.22 1.01,0 0,0.07 1,0 0,0 1.01,0 0,0.37 1.01,0 0,-0.37 1.01,0 0,0.45 1,0 0,-0.3 1.01,0 0,-0.37 1.01,0 0,0.45 1,0 0,-0.23 1.01,0 0,0 1.01,0 0,0.37 1.01,0 0,-0.51 1,0 0,0.07 1.01,0 0,0.07 1.01,0 0,0 1.01,0 0,-0.14 1,0 0,0" /></g></g><g
       id="g7132" /><g
       id="g7134" /><g
       id="g7136" /><g
       id="g7138" /><g
       id="g7140" /><g
       id="g7142"><text
         id="text7144"
         style="font-variant:normal;font-weight:normal;font-size:10px;font-family:Roboto;-inkscape-font-specification:Roboto;writing-mode:lr-tb;fill:#000000;fill-opacity:1;fill-rule:nonzero;stroke:none"
         transform="matrix(1,0,0,-1,57.02,42.39)"><tspan
           id="tspan7146"
           y="0"
           x="0"
           style="font-size:12px">0</tspan></text>
<text
         id="text7148"
         style="font-variant:normal;font-weight:normal;font-size:10px;font-family:Roboto;-inkscape-font-specification:Roboto;writing-mode:lr-tb;fill:#000000;fill-opacity:1;fill-rule:nonzero;stroke:none"
         transform="matrix(1,0,0,-1,57.02,71.72)"><tspan
           id="tspan7150"
           y="0"
           x="0"
           style="font-size:12px">1</tspan></text>
<text
         id="text7152"
         style="font-variant:normal;font-weight:normal;font-size:10px;font-family:Roboto;-inkscape-font-specification:Roboto;writing-mode:lr-tb;fill:#000000;fill-opacity:1;fill-rule:nonzero;stroke:none"
         transform="matrix(1,0,0,-1,51.46,335.76)"><tspan
           id="tspan7154"
           sodipodi:role="line"
           y="0"
           x="0"
           style="font-size:12px">10</tspan></text>
</g><g
       id="g7156" /><g
       id="g7158" /><g
       id="g7160" /><g
       id="g7162" /><g
       id="g7164" /><g
       id="g7166" /><g
       id="g7168" /><g
       id="g7170" /><g
       id="g7172" /><g
       id="g7174" /><g
       id="g7176" /><g
       id="g7178"><text
         id="text7180"
         style="font-variant:normal;font-weight:normal;font-size:10px;font-family:Roboto;-inkscape-font-specification:Roboto;writing-mode:lr-tb;fill:#000000;fill-opacity:1;fill-rule:nonzero;stroke:none"
         transform="scale(1,-1)"
         x="83.222382"
         y="-32.970001"><tspan
           id="tspan7182"
           y="-32.970001"
           x="80.529999"
           style="font-size:12px;text-align:center;text-anchor:middle">0</tspan></text>
<text
         id="text7184"
         style="font-variant:normal;font-weight:normal;font-size:10px;font-family:Roboto;-inkscape-font-specification:Roboto;writing-mode:lr-tb;fill:#000000;fill-opacity:1;fill-rule:nonzero;stroke:none"
         transform="scale(1,-1)"
         x="114.09891"
         y="-32.970001"><tspan
           id="tspan7186"
           sodipodi:role="line"
           y="-32.970001"
           x="114.09891"
           style="font-size:12px;text-align:center;text-anchor:middle">30</tspan></text>
<text
         id="text7188"
         style="font-variant:normal;font-weight:normal;font-size:10px;font-family:Roboto;-inkscape-font-specification:Roboto;writing-mode:lr-tb;fill:#000000;fill-opacity:1;fill-rule:nonzero;stroke:none"
         transform="scale(1,-1)"
         x="144.20758"
         y="-32.970001"><tspan
           id="tspan7190"
           sodipodi:role="line"
           y="-32.970001"
           x="144.20758"
           style="font-size:12px;text-align:center;text-anchor:middle">60</tspan></text>
<text
         id="text7192"
         style="font-variant:normal;font-weight:normal;font-size:10px;font-family:Roboto;-inkscape-font-specification:Roboto;writing-mode:lr-tb;fill:#000000;fill-opacity:1;fill-rule:nonzero;stroke:none"
         transform="scale(1,-1)"
         x="174.52133"
         y="-32.970001"><tspan
           id="tspan7194"
           sodipodi:role="line"
           y="-32.970001"
           x="174.52133"
           style="font-size:12px;text-align:center;text-anchor:middle">90</tspan></text>
<text
         id="text7196"
         style="font-variant:normal;font-weight:normal;font-size:10px;font-family:Roboto;-inkscape-font-specification:Roboto;writing-mode:lr-tb;fill:#000000;fill-opacity:1;fill-rule:nonzero;stroke:none"
         transform="scale(1,-1)"
         x="203.58438"
         y="-32.970001"><tspan
           id="tspan7198"
           sodipodi:role="line"
           y="-32.970001"
           x="203.58438"
           style="font-size:12px;text-align:center;text-anchor:middle">120</tspan></text>
<text
         id="text7200"
         style="font-variant:normal;font-weight:normal;font-size:10px;font-family:Roboto;-inkscape-font-specification:Roboto;writing-mode:lr-tb;fill:#000000;fill-opacity:1;fill-rule:nonzero;stroke:none"
         transform="scale(1,-1)"
         x="233.80438"
         y="-32.970001"><tspan
           id="tspan7202"
           sodipodi:role="line"
           y="-32.970001"
           x="233.80438"
           style="font-size:12px;text-align:center;text-anchor:middle">150</tspan></text>
<text
         id="text7204"
         style="font-variant:normal;font-weight:normal;font-size:10px;font-family:Roboto;-inkscape-font-specification:Roboto;writing-mode:lr-tb;fill:#000000;fill-opacity:1;fill-rule:nonzero;stroke:none"
         transform="scale(1,-1)"
         x="264.03436"
         y="-32.970001"><tspan
           id="tspan7206"
           sodipodi:role="line"
           y="-32.970001"
           x="264.03436"
           style="font-size:12px;text-align:center;text-anchor:middle">180</tspan></text>
<text
         id="text7208"
         style="font-variant:normal;font-weight:normal;font-size:10px;font-family:Roboto;-inkscape-font-specification:Roboto;writing-mode:lr-tb;fill:#000000;fill-opacity:1;fill-rule:nonzero;stroke:none"
         transform="scale(1,-1)"
         x="286.51999"
         y="-32.970001"><tspan
           id="tspan7210"
           sodipodi:role="line"
           y="-32.970001"
           x="286.51999"
           style="font-size:12px">210</tspan></text>
<text
         id="text7212"
         style="font-variant:normal;font-weight:normal;font-size:10px;font-family:Roboto;-inkscape-font-specification:Roboto;writing-mode:lr-tb;fill:#000000;fill-opacity:1;fill-rule:nonzero;stroke:none"
         transform="scale(1,-1)"
         x="324.66235"
         y="-32.970001"><tspan
           id="tspan7214"
           sodipodi:role="line"
           y="-32.970001"
           x="324.66235"
           style="font-size:12px;text-align:center;text-anchor:middle">240</tspan></text>
<text
         id="text7216"
         style="font-variant:normal;font-weight:normal;font-size:10px;font-family:Roboto;-inkscape-font-specification:Roboto;writing-mode:lr-tb;fill:#000000;fill-opacity:1;fill-rule:nonzero;stroke:none"
         transform="scale(1,-1)"
         x="354.88235"
         y="-32.970001"><tspan
           id="tspan7218"
           sodipodi:role="line"
           y="-32.970001"
           x="354.88235"
           style="font-size:12px;text-align:center;text-anchor:middle">270</tspan></text>
<text
         id="text7220"
         style="font-variant:normal;font-weight:normal;font-size:10px;font-family:Roboto;-inkscape-font-specification:Roboto;writing-mode:lr-tb;fill:#000000;fill-opacity:1;fill-rule:nonzero;stroke:none"
         transform="scale(1,-1)"
         x="386.6839"
         y="-32.970001"><tspan
           id="tspan7222"
           sodipodi:role="line"
           y="-32.970001"
           x="386.6839"
           style="font-size:12px;text-align:center;text-anchor:middle">300</tspan></text>
<text
         id="text7224"
         style="font-variant:normal;font-weight:normal;font-size:10px;font-family:Roboto;-inkscape-font-specification:Roboto;writing-mode:lr-tb;fill:#000000;fill-opacity:1;fill-rule:nonzero;stroke:none"
         transform="scale(1,-1)"
         x="415.31992"
         y="-32.970001"><tspan
           id="tspan7226"
           sodipodi:role="line"
           y="-32.970001"
           x="415.31992"
           style="font-size:12px;text-align:center;text-anchor:middle">330</tspan></text>
<text
         id="text7228"
         style="font-variant:normal;font-weight:normal;font-size:10px;font-family:Roboto;-inkscape-font-specification:Roboto;text-align:center;writing-mode:lr-tb;text-anchor:middle;fill:#000000;fill-opacity:1;fill-rule:nonzero;stroke:none"
         transform="scale(1,-1)"
         x="445.53992"
         y="-32.970001"><tspan
           id="tspan7230"
           sodipodi:role="line"
           y="-32.970001"
           x="445.53992"
           style="font-size:12px">360</tspan></text>
</g><g
       id="g7232" /><g
       id="g7234" /><g
       id="g7236" /><g
       id="g7238"
       transform="translate(-35.2,8)"><text
         id="text7240"
         style="font-variant:normal;font-weight:normal;font-size:12px;font-family:Roboto;-inkscape-font-specification:Roboto;writing-mode:lr-tb;fill:#000000;fill-opacity:1;fill-rule:nonzero;stroke:none"
         transform="matrix(1,0,0,-1,255.98,8.37)"><tspan
           id="tspan7242"
           sodipodi:role="line"
           y="0"
           x="0"
           style="font-size:16px">Days after birth</tspan></text>
</g><g
       id="g7244" /><g
       id="g7246" /><g
       id="g7252" /><g
       id="g7254" /><g
       id="g7256" /><g
       id="g7258" /><text
       xml:space="preserve"
       style="font-style:normal;font-variant:normal;font-weight:normal;font-stretch:normal;font-size:10px;line-height:100%;font-family:Roboto;-inkscape-font-specification:Roboto;text-align:center;letter-spacing:0px;word-spacing:0px;text-anchor:middle;fill:#000000;fill-opacity:1;stroke:none;stroke-width:1px;stroke-linecap:butt;stroke-linejoin:miter;stroke-opacity:1"
       x="80.446228"
       y="-378.08102"
       id="text7319"
       sodipodi:linespacing="100%"
       transform="scale(1,-1)"><tspan
         sodipodi:role="line"
         x="80.446228"
         y="-378.08102"
         id="tspan7323"
         style="font-size:12px;text-align:end;text-anchor:end">Deaths per 10,000</tspan><tspan
         sodipodi:role="line"
         x="80.446228"
         y="-366.08102"
         id="tspan7327"
         style="font-size:12px;text-align:end;text-anchor:end">person-days</tspan><tspan
         sodipodi:role="line"
         x="80.446228"
         y="-354.08102"
         id="tspan4259"
         style="font-size:12px;text-align:end;text-anchor:end">of exposure</tspan></text>
<path
       style="fill:none;fill-rule:evenodd;stroke:#000000;stroke-width:0.80000001px;stroke-linecap:butt;stroke-linejoin:miter;stroke-opacity:1"
       d="M 86.477212,350.55653 104.28808,331.85447"
       id="path7311"
       inkscape:connector-curvature="0" /><text
       xml:space="preserve"
       style="font-style:normal;font-weight:normal;font-size:10px;line-height:100%;font-family:sans-serif;text-align:start;letter-spacing:0px;word-spacing:0px;text-anchor:start;fill:#000000;fill-opacity:1;stroke:none;stroke-width:1px;stroke-linecap:butt;stroke-linejoin:miter;stroke-opacity:1"
       x="106.20871"
       y="-326.87512"
       id="text7313"
       sodipodi:linespacing="100%"
       transform="scale(1,-1)"><tspan
         sodipodi:role="line"
         x="106.20871"
         y="-326.87512"
         style="font-style:normal;font-variant:normal;font-weight:normal;font-stretch:normal;font-size:12px;line-height:100%;font-family:Roboto;-inkscape-font-specification:Roboto;text-align:start;text-anchor:start"
         id="tspan5822">Day of birth</tspan></text>
</g></svg>